<svg xmlns="http://www.w3.org/2000/svg" viewBox="0 0 1234 171"><style>.s0{fill:#000}.s1{fill:#fff}.s4{fill:#039}.s5{fill:#fc0}</style><g id="Warstwa 1"><g id="&lt;Group&gt;"><path id="&lt;Compound Path&gt;" fill-rule="evenodd" d="M659.36 97.59q1.47 0 2.48.37t1.61 1.03q.6.67.86 1.62.26.94.26 2.07v7.8q-.69.15-2.08.36t-3.13.21q-1.16 0-2.12-.22t-1.64-.72q-.67-.49-1.06-1.28-.38-.78-.38-1.94 0-1.11.44-1.87.42-.76 1.16-1.24t1.71-.69 2.03-.21q.49 0 1.03.06.55.06 1.16.21v-.49q0-.52-.12-.99-.12-.46-.43-.82-.31-.35-.81-.55-.51-.2-1.27-.2-1.03 0-1.89.15-.87.15-1.41.34l-.37-2.41q.57-.19 1.65-.39t2.32-.2m.24 11.1q1.38 0 2.09-.15v-3.3q-.25-.07-.71-.15-.47-.07-1.03-.07-.5 0-1 .07-.5.08-.91.28-.41.19-.65.55-.25.35-.25.9 0 1.05.66 1.46.67.41 1.8.41m-14.76-5.76q.56-.59 1.2-1.27.64-.67 1.25-1.35.62-.68 1.17-1.3.56-.63.95-1.1h3.52q-1.23 1.38-2.59 2.86-1.36 1.47-2.74 2.87.74.62 1.55 1.49t1.57 1.86q.76.98 1.42 1.97.67.98 1.11 1.82h-3.44q-.45-.76-1.03-1.6-.57-.84-1.24-1.63-.66-.78-1.35-1.48t-1.35-1.2v5.91h-2.98v-18.6l2.98-.49zm-10.7 5.7q1.18.01 1.72-.28.54-.28.54-.97 0-.64-.57-1.06-.58-.42-1.91-.91-.81-.29-1.49-.63-.68-.33-1.17-.77t-.77-1.07q-.29-.63-.29-1.54 0-1.77 1.31-2.79 1.3-1.02 3.54-1.02 1.13 0 2.16.21 1.04.21 1.56.4l-.55 2.42q-.49-.23-1.25-.41-.76-.19-1.77-.18-.91-.01-1.48.3-.56.31-.56.95 0 .32.11.57.11.24.38.45t.71.42 1.09.43q1.05.39 1.79.77t1.22.86q.48.49.7 1.1t.22 1.48q0 1.84-1.36 2.79-1.37.94-3.9.95-1.7-.01-2.73-.29-1.04-.28-1.46-.45l.52-2.49q.67.27 1.59.52.92.24 2.1.24m-6.41 2.39q-1.33-.02-2.2-.29-.88-.28-1.39-.78-.52-.5-.73-1.25-.21-.76-.21-1.71V92.18l2.98-.49v14.73q0 .54.08.91.09.37.31.63t.6.39q.39.14.98.21zm-7.15-6.69q0 1.52-.44 2.78-.44 1.25-1.26 2.14-.81.88-1.95 1.38-1.14.49-2.52.49t-2.51-.49q-1.13-.5-1.95-1.38-.81-.89-1.26-2.14-.46-1.26-.46-2.78 0-1.53.46-2.77.45-1.24 1.28-2.13.82-.88 1.95-1.36t2.49-.48q1.35 0 2.5.48 1.14.48 1.95 1.36.81.89 1.27 2.13.45 1.24.45 2.77m-3.05 0q0-1.92-.82-3.04-.83-1.12-2.3-1.12-1.48 0-2.3 1.12-.83 1.12-.83 3.04 0 1.94.83 3.07.82 1.13 2.3 1.13 1.47 0 2.3-1.13.82-1.13.82-3.07m-18.36-10.78q3.71 0 5.69 1.36 1.98 1.35 1.98 4.23 0 1.5-.53 2.57t-1.53 1.74q-1.01.68-2.46 1-1.46.32-3.33.32h-1.54v6h-3.1v-16.8q1.08-.24 2.39-.33 1.32-.09 2.43-.09m.22 2.69q-1.18 0-1.94.07v5.8h1.5q2.23 0 3.44-.62 1.2-.63 1.2-2.38 0-.83-.31-1.4-.33-.57-.89-.88-.57-.32-1.34-.46-.78-.13-1.66-.13" class="s0"/><path fill-rule="evenodd" d="M756.38 69.25q1.47 0 2.48.37t1.61 1.03.86 1.61.26 2.08v7.8q-.69.14-2.08.36-1.39.2-3.13.2-1.16 0-2.12-.22t-1.64-.71q-.67-.49-1.05-1.28-.39-.79-.39-1.94 0-1.11.43-1.87.44-.77 1.17-1.25.74-.48 1.71-.68.98-.21 2.03-.21.49 0 1.04.06.54.06 1.15.21v-.49q0-.52-.12-.99-.12-.46-.43-.82t-.81-.56q-.51-.19-1.27-.19-1.03 0-1.89.14-.87.15-1.41.35l-.37-2.41q.57-.2 1.65-.4 1.08-.19 2.32-.19m.24 11.09q1.38 0 2.09-.15V76.9q-.25-.07-.71-.15-.47-.07-1.03-.07-.5 0-1 .07-.51.08-.91.27-.41.2-.65.55-.25.36-.25.9 0 1.06.66 1.47.67.4 1.8.4m-14.88-14.17 2.98-.49v3.89h4.57v2.48h-4.57v5.24q0 1.55.49 2.22.49.66 1.67.66.81 0 1.44-.17t1-.32l.49 2.36q-.52.22-1.36.46-.83.23-1.96.23-1.38 0-2.3-.37-.93-.37-1.47-1.07t-.76-1.7q-.22-.99-.22-2.27zm-2.99-.37q0 .83-.54 1.33-.54.49-1.28.49-.76 0-1.31-.49-.54-.5-.54-1.33 0-.86.54-1.36.55-.49 1.31-.49.74 0 1.28.49.54.5.54 1.36m-.32 16.63h-2.98V69.56h2.98zm-5.81.25q-1.33-.03-2.2-.3t-1.39-.77q-.52-.51-.72-1.26-.21-.75-.21-1.71V63.83l2.97-.49v14.74q0 .54.09.91.08.37.31.62.22.26.6.4.38.13.97.21zm-7.2-6.69q0 1.52-.44 2.78-.44 1.25-1.25 2.14-.82.88-1.96 1.38-1.14.48-2.52.49-1.38-.01-2.51-.49-1.13-.5-1.94-1.38-.82-.89-1.27-2.14-.46-1.26-.46-2.78 0-1.53.46-2.77.45-1.24 1.28-2.13.82-.88 1.95-1.36t2.49-.48q1.35 0 2.5.48 1.14.48 1.95 1.36.81.89 1.27 2.13.45 1.24.45 2.77m-3.05 0q0-1.92-.82-3.04-.83-1.12-2.3-1.12-1.48 0-2.3 1.12-.83 1.12-.83 3.04 0 1.94.83 3.07.82 1.13 2.3 1.13 1.47 0 2.3-1.13.82-1.13.82-3.07m-11.37.02q0 1.48-.38 2.71t-1.1 2.11q-.71.89-1.78 1.38t-2.42.49q-.91 0-1.68-.22-.76-.22-1.25-.49v4.99h-2.98v-17q.91-.24 2.24-.46t2.81-.22q1.52 0 2.73.46 1.2.47 2.05 1.34.85.88 1.3 2.12.46 1.24.46 2.79m-3.05.05q0-1.99-.9-3.1t-2.89-1.11q-.42 0-.87.04-.46.04-.9.16v7.36q.39.27 1.05.5.65.23 1.39.23 1.62 0 2.37-1.1.75-1.11.75-2.98m-16.25 4.23q1.18 0 1.72-.28t.54-.97q0-.64-.58-1.06t-1.91-.91q-.81-.3-1.48-.63-.68-.33-1.17-.77-.5-.45-.78-1.07-.28-.63-.28-1.54 0-1.77 1.3-2.79 1.31-1.02 3.55-1.02 1.13 0 2.16.21 1.03.2 1.55.4l-.54 2.41q-.49-.22-1.26-.4-.76-.19-1.77-.19-.91 0-1.47.31-.57.31-.57.95 0 .32.11.56.11.25.38.46t.72.42q.44.2 1.08.43 1.06.39 1.79.77.74.38 1.22.86t.7 1.1q.22.61.22 1.47 0 1.85-1.36 2.79-1.37.95-3.9.95-1.7 0-2.73-.28t-1.45-.46l.52-2.48q.66.27 1.58.52.92.24 2.11.24m-5.96-4.3q0 1.52-.45 2.78-.44 1.25-1.25 2.14-.81.88-1.96 1.38-1.14.48-2.52.49-1.37-.01-2.51-.49-1.13-.5-1.94-1.38-.81-.89-1.27-2.14-.45-1.26-.45-2.78 0-1.53.45-2.77.46-1.24 1.28-2.13.83-.88 1.96-1.36t2.48-.48q1.36 0 2.5.48t1.96 1.36q.81.89 1.26 2.13.46 1.24.46 2.77m-3.05 0q0-1.92-.83-3.04-.82-1.12-2.3-1.12-1.47 0-2.3 1.12-.82 1.12-.82 3.04 0 1.94.82 3.07.83 1.13 2.3 1.13 1.48 0 2.3-1.13.83-1.13.83-3.07m-11.38.02q0 1.48-.38 2.71t-1.09 2.11q-.71.89-1.79 1.38-1.07.49-2.42.49-.91 0-1.67-.22t-1.26-.49v4.99h-2.97v-17q.91-.24 2.24-.46t2.8-.22q1.52 0 2.73.46 1.21.47 2.06 1.34.84.88 1.3 2.12.45 1.24.45 2.79m-3.04.05q-.01-1.99-.9-3.1-.9-1.11-2.89-1.11-.42 0-.88.04-.45.04-.9.16v7.36q.4.27 1.05.5t1.39.23q1.62 0 2.37-1.1.75-1.11.76-2.98m-11.2-4.4q-.49.51-1.29 1.45-.8.93-1.71 2.08-.91 1.14-1.84 2.38-.92 1.25-1.66 2.38h6.65v2.48h-10.24v-1.84q.54-.99 1.36-2.14.81-1.16 1.67-2.33t1.71-2.22q.85-1.06 1.51-1.85h-5.93v-2.48h9.77zm-21.87 4.35q0-1.43.44-2.67t1.27-2.15q.82-.91 2-1.43t2.66-.52q1.82 0 3.44.67l-.64 2.43q-.52-.22-1.17-.36-.65-.15-1.39-.15-1.74 0-2.65 1.09-.91 1.1-.91 3.09 0 1.92.86 3.04t2.9 1.12q.76 0 1.5-.15t1.28-.37l.42 2.46q-.49.25-1.49.44-1 .2-2.05.2-1.65 0-2.87-.5-1.22-.51-2.02-1.41-.8-.89-1.19-2.14-.39-1.24-.39-2.69m-13.72.05q0-1.7.5-2.98.51-1.28 1.34-2.13.84-.84 1.92-1.27 1.08-.44 2.21-.44 2.66 0 4.15 1.65t1.49 4.92q0 .25-.01.56-.02.3-.04.55h-8.49q.13 1.55 1.1 2.4t2.81.85q1.09 0 1.98-.2.9-.2 1.42-.42l.39 2.44q-.24.12-.67.26-.43.13-.99.24-.55.11-1.19.19-.64.07-1.3.07-1.7 0-2.96-.5-1.25-.51-2.06-1.41-.82-.89-1.21-2.11t-.39-2.67m8.63-1.33q0-.61-.17-1.17-.17-.55-.5-.96-.34-.4-.82-.64-.48-.23-1.14-.23-.69 0-1.21.26-.51.26-.87.67-.36.42-.55.96-.2.54-.27 1.11zm-10.35-3.07q-.49.51-1.29 1.45-.8.93-1.71 2.08-.91 1.14-1.83 2.38-.92 1.25-1.66 2.38h6.64v2.48h-10.23v-1.84q.54-.99 1.35-2.14.81-1.16 1.67-2.33t1.71-2.23q.85-1.05 1.51-1.84H610v-2.49h9.76zm-20.72-6.44q3.69 0 5.65 1.35 1.95 1.36 1.95 4.13 0 3.47-3.42 4.7.47.57 1.06 1.38t1.2 1.76q.62.95 1.19 1.94.56 1 1 1.96h-3.46q-.47-.89-1.01-1.79-.54-.89-1.1-1.74-.55-.85-1.09-1.6T600 75.97q-.34.02-.59.02h-1.97v6.45h-3.1v-16.8q1.13-.25 2.41-.34 1.28-.08 2.29-.08m.22 2.68q-.98 0-1.82.07v5.51h1.36q1.13 0 1.99-.12t1.44-.44q.57-.32.87-.86.29-.54.3-1.38-.01-.79-.3-1.33-.3-.54-.85-.86t-1.32-.45q-.76-.14-1.67-.14" class="s0"/><path id="&lt;Path&gt;" d="M572.92 47.17H445.7v42.52h127.22z" class="s1"/><path d="M572.92 89.52H445.7v42.35h127.22z" style="fill:#bb0a30"/><path fill-rule="evenodd" d="M573.09 132.04H445.53V47h127.56zm-.4-84.64H445.93v84.24h126.76z" style="fill:#808285"/></g><path fill-rule="evenodd" d="M1051.1 97.59q1.47 0 2.48.37 1.01.36 1.61 1.03.61.66.87 1.61.25.95.25 2.08v7.8q-.27.22-.67.54-.41.32-.8.73-.35.35-.54.65-.2.29-.2.61 0 .67.86.66.2.01.49-.03.3-.04.64-.16l.25 1.99q-.4.15-.95.23-.55.09-1.09.09-1.53 0-2.21-.55-.67-.56-.67-1.49 0-.57.27-1.07.27-.51.69-.95.34-.42.83-.79-.49.05-1.02.08-.53.02-1.09.02-1.16 0-2.12-.22t-1.63-.71q-.68-.49-1.06-1.28t-.38-1.94q0-1.11.43-1.87t1.17-1.24q.74-.49 1.71-.7.97-.2 2.03-.2.49 0 1.03.06t1.16.21v-.5q0-.51-.13-.98-.12-.47-.43-.82-.31-.36-.81-.56-.5-.19-1.27-.19-1.03 0-1.89.14-.86.15-1.4.35l-.37-2.41q.56-.2 1.65-.4 1.08-.19 2.31-.19m.24 11.09q1.38 0 2.1-.15v-3.29q-.25-.08-.72-.15t-1.03-.07q-.49 0-1 .07-.5.07-.91.27-.4.2-.65.55-.25.36-.24.9 0 1.06.66 1.46.66.41 1.79.41m-14.84-5.76q.57-.59 1.21-1.26.64-.68 1.25-1.35.62-.68 1.17-1.31l.95-1.09h3.51q-1.22 1.37-2.59 2.85-1.36 1.47-2.73 2.88.73.61 1.55 1.49.8.87 1.57 1.85.76.99 1.42 1.97.66.99 1.1 1.82h-3.44q-.44-.76-1.02-1.6-.58-.83-1.24-1.62-.67-.79-1.36-1.49-.68-.7-1.35-1.19v5.9h-2.98v-18.6l2.98-.49zm-10.69 5.71q1.18 0 1.72-.28t.54-.98q0-.63-.58-1.05t-1.91-.91q-.81-.3-1.48-.63-.68-.33-1.17-.78-.49-.44-.78-1.07-.28-.62-.28-1.53 0-1.77 1.3-2.79 1.31-1.03 3.55-1.03 1.13.01 2.16.21 1.03.21 1.55.41l-.54 2.41q-.49-.22-1.26-.41-.76-.18-1.77-.18-.91 0-1.47.31-.57.3-.57.94 0 .32.11.57t.38.46q.27.2.72.41.44.21 1.08.43 1.06.4 1.8.78.73.38 1.21.86t.7 1.09q.22.62.22 1.48 0 1.85-1.36 2.79-1.37.95-3.9.95-1.7 0-2.73-.28-1.03-.29-1.45-.46l.51-2.48q.67.27 1.59.51.92.25 2.11.25m-6.4-14.49q0 .84-.54 1.33t-1.28.49q-.76 0-1.3-.49t-.54-1.33q0-.86.54-1.35t1.3-.49q.74 0 1.28.49t.54 1.35m-4.94 21.21q-.32 0-.9-.07-.58-.06-1.02-.23l.39-2.44q.55.18 1.31.18 1.03 0 1.45-.61.41-.6.41-1.8V97.9h2.98v12.53q0 2.5-1.19 3.71-1.2 1.21-3.43 1.21m-12.92-10.95q0-1.7.51-2.98.5-1.28 1.34-2.13.83-.84 1.92-1.28 1.08-.43 2.21-.43 2.65 0 4.14 1.65t1.49 4.92q0 .25-.01.56-.01.3-.04.55h-8.48q.12 1.55 1.09 2.4t2.82.85q1.08 0 1.98-.2t1.41-.42l.4 2.44q-.25.12-.68.25-.43.14-.98.25-.56.11-1.2.19-.64.07-1.3.07-1.7 0-2.95-.51-1.26-.5-2.07-1.4-.81-.89-1.21-2.11-.39-1.22-.39-2.67m8.63-1.33q.01-.61-.17-1.17-.17-.55-.5-.96t-.81-.64-1.15-.23q-.69 0-1.2.26-.52.26-.88.67-.35.42-.55.96t-.27 1.11zm-10.71 1.28q0 1.47-.38 2.71-.38 1.23-1.09 2.11-.72.89-1.79 1.38t-2.42.49q-.91 0-1.67-.22-.77-.22-1.26-.49v4.99h-2.97v-17q.91-.24 2.23-.47 1.33-.22 2.81-.22 1.52 0 2.73.47 1.2.47 2.05 1.34.85.88 1.31 2.12.45 1.24.45 2.79m-3.05.05q0-1.99-.9-3.1-.89-1.11-2.89-1.11-.42 0-.87.04-.46.04-.9.16v7.35q.39.27 1.05.51.65.23 1.39.23 1.62 0 2.37-1.11.75-1.1.75-2.97m-11.27-.08q0 1.53-.44 2.78-.44 1.26-1.26 2.14-.81.89-1.95 1.38-1.15.49-2.52.49-1.38 0-2.51-.49t-1.94-1.38q-.82-.88-1.27-2.14-.46-1.25-.46-2.78 0-1.52.46-2.76.45-1.24 1.28-2.13.82-.89 1.95-1.37 1.14-.47 2.49-.48 1.35.01 2.49.48 1.15.48 1.96 1.37t1.27 2.13q.45 1.24.45 2.76m-3.05 0q0-1.91-.82-3.03-.83-1.12-2.3-1.12-1.48 0-2.3 1.12-.83 1.12-.83 3.03 0 1.95.83 3.08.82 1.13 2.3 1.13 1.47 0 2.3-1.13.82-1.13.82-3.08m-10.78-3.74q-.37-.12-1.02-.25-.65-.14-1.51-.14-.49 0-1.05.1-.55.1-.77.17v10.31h-2.98V98.52q.86-.32 2.15-.6 1.29-.29 2.87-.29.29 0 .69.04.39.04.79.1.39.06.76.15.37.08.59.16zm-10.71 9.79q-.86.22-2.24.45-1.38.24-3.03.24-1.55 0-2.59-.45-1.05-.44-1.68-1.22-.62-.79-.89-1.89-.28-1.09-.27-2.4v-7.2h2.97v6.74q0 2.06.61 2.95.6.88 2.1.88.54 0 1.14-.05.61-.04.9-.12V97.9h2.98zm-24.38.39V93.71h10.95v2.64h-7.85v4.2h6.99v2.58h-6.99v5h8.44v2.63zm-21.36-6.37q0-1.7.51-2.98.5-1.28 1.34-2.12.83-.85 1.91-1.28 1.09-.43 2.22-.43 2.66 0 4.15 1.64 1.48 1.65 1.48 4.92 0 .25-.01.56t-.03.55h-8.49q.12 1.55 1.09 2.4t2.82.85q1.08 0 1.98-.2t1.41-.42l.4 2.44q-.37.27-.79.6t-.79.7q-.36.37-.61.73-.25.35-.25.65 0 .66.86.66.5 0 1.14-.19l.22 1.99q-.4.17-.97.25-.58.07-1.05.07-1.45 0-2.18-.53-.72-.53-.72-1.51-.01-.72.45-1.38t1.17-1.3q-.15.02-.32.02h-.32q-1.7 0-2.95-.5-1.26-.51-2.07-1.4-.81-.9-1.2-2.12-.4-1.22-.4-2.67m8.64-1.33q0-.61-.17-1.17-.18-.55-.51-.96-.33-.4-.81-.64-.48-.23-1.15-.23-.69 0-1.2.26-.52.26-.88.67-.35.42-.55.96t-.27 1.11zm-11.09-8.93q0 .84-.54 1.33t-1.28.49q-.76 0-1.3-.49t-.54-1.33q0-.86.54-1.35t1.3-.49q.74 0 1.28.49t.54 1.35m-.32 16.63h-2.97V97.9h2.97zm-16.97-12.45q.86-.25 2.24-.47 1.37-.22 3.05-.22 1.57 0 2.63.43t1.68 1.21q.63.77.89 1.87.26 1.09.26 2.39v7.24h-2.98v-6.77q0-1.03-.13-1.76-.14-.72-.45-1.18-.3-.45-.83-.66t-1.29-.21q-.57 0-1.19.07-.61.08-.91.13v10.38h-2.97zM885 111.12q-1.74 0-3-.5-1.25-.51-2.08-1.42-.82-.9-1.21-2.14-.4-1.23-.4-2.7V93.7h3.13v10.36q0 1.16.25 1.98.26.83.74 1.34.48.52 1.13.77.66.24 1.47.24t1.47-.24q.67-.25 1.15-.77.48-.51.74-1.34.26-.82.25-1.98V93.7h3.13v10.66q0 1.47-.41 2.7-.4 1.24-1.23 2.14-.82.91-2.1 1.42-1.28.5-3.03.5M1056.25 71.65q-.5.52-1.29 1.45-.8.94-1.71 2.08-.92 1.15-1.84 2.39t-1.66 2.37h6.65v2.49h-10.24v-1.85q.54-.98 1.35-2.14.82-1.15 1.68-2.32t1.71-2.23 1.51-1.84h-5.93v-2.49h9.77zm-23.2 4.4q0-1.69.5-2.97.51-1.28 1.34-2.13.84-.85 1.92-1.28t2.22-.43q2.65 0 4.14 1.65t1.49 4.92q0 .25-.01.55-.01.31-.04.56h-8.49q.13 1.54 1.1 2.39t2.82.85q1.08 0 1.98-.19.89-.2 1.41-.42l.39 2.43q-.24.13-.67.26-.43.14-.99.25-.55.11-1.19.18-.64.08-1.3.08-1.7 0-2.95-.51-1.26-.5-2.07-1.4t-1.21-2.12q-.39-1.21-.39-2.67m8.63-1.32q0-.62-.17-1.17-.17-.56-.5-.96-.33-.41-.82-.64-.47-.23-1.14-.23-.69 0-1.2.25-.52.26-.88.68-.35.42-.55.96t-.27 1.11zm-10.35-3.08q-.49.52-1.29 1.45-.8.94-1.71 2.08-.91 1.15-1.83 2.39t-1.66 2.37h6.64v2.49h-10.23v-1.85q.54-.98 1.35-2.14t1.67-2.32q.86-1.17 1.71-2.23t1.52-1.85h-5.93v-2.48h9.76zm-11.84.59q-.37-.12-1.02-.26-.65-.13-1.51-.13-.49 0-1.05.09-.55.1-.77.18v10.3h-2.98V70.17q.86-.32 2.15-.6 1.3-.28 2.87-.28.29 0 .69.03.39.04.79.1.39.06.76.15t.59.16zM1009.45 76q0 1.48-.38 2.71t-1.1 2.12q-.71.88-1.78 1.37t-2.42.49q-.91 0-1.67-.22-.77-.22-1.26-.49v5h-2.98v-17q.91-.25 2.24-.47t2.81-.22q1.52 0 2.73.47 1.2.46 2.05 1.34.85.87 1.31 2.11.45 1.24.45 2.79m-3.05.05q0-1.99-.9-3.1-.9-1.1-2.89-1.1-.42 0-.87.03-.46.04-.9.16v7.36q.39.27 1.05.5.65.24 1.39.24 1.62 0 2.37-1.11t.75-2.98m-29.19 0q0-1.69.5-2.97.51-1.28 1.34-2.13.84-.85 1.92-1.28t2.22-.43q2.65 0 4.14 1.65 1.49 1.64 1.49 4.92 0 .24-.01.55-.02.31-.04.55h-8.49q.13 1.55 1.1 2.4t2.81.85q1.09 0 1.99-.2.89-.19 1.41-.41l.39 2.43q-.24.12-.67.26-.43.13-.99.25-.55.11-1.19.18t-1.3.07q-1.7 0-2.96-.5-1.25-.5-2.06-1.4t-1.21-2.12q-.39-1.22-.39-2.67m8.63-1.33q0-.61-.17-1.16-.17-.56-.5-.96-.34-.41-.82-.64-.48-.24-1.14-.24-.69 0-1.2.26-.52.26-.88.68-.35.42-.55.96t-.27 1.1zm-21.97-4.74q.86-.25 2.24-.47t3.05-.22q1.57 0 2.63.43t1.69 1.2q.62.78.88 1.87.26 1.1.26 2.4v7.24h-2.98v-6.77q.01-1.03-.13-1.76t-.44-1.18q-.31-.46-.84-.66-.53-.21-1.29-.21-.57 0-1.18.07-.62.08-.91.12v10.39h-2.98zm-8.49-.74q1.48 0 2.49.37 1 .37 1.61 1.03.6.66.86 1.61t.26 2.08v7.8q-.69.15-2.08.35-1.39.21-3.14.21-1.16 0-2.11-.22-.96-.22-1.64-.71t-1.06-1.28-.38-1.94q0-1.11.43-1.87.43-.77 1.17-1.25t1.71-.69q.97-.2 2.03-.2.49 0 1.03.06t1.16.21v-.49q0-.52-.12-.99-.13-.47-.44-.82-.3-.36-.81-.56-.5-.19-1.26-.19-1.04 0-1.9.15-.86.14-1.4.34l-.37-2.41q.57-.2 1.65-.4 1.08-.19 2.31-.19m.25 11.09q1.37 0 2.09-.15v-3.29q-.25-.08-.72-.15-.46-.07-1.03-.07-.49 0-1 .07-.5.07-.91.27-.4.2-.65.55-.24.36-.24.9 0 1.06.66 1.47.67.4 1.8.4m-15.64-6q-.57 2.17-1.22 4.22t-1.29 3.87h-2.44q-.49-1.13-1.04-2.58-.54-1.45-1.08-3.1t-1.08-3.47q-.55-1.82-1.06-3.71h3.15q.22 1.03.51 2.22.3 1.2.62 2.44t.67 2.42.69 2.17q.37-1.13.73-2.34.36-1.2.68-2.41t.6-2.35q.29-1.14.51-2.15h2.28q.22 1.01.5 2.15.27 1.14.57 2.35.31 1.21.67 2.41.35 1.21.72 2.34.32-.99.67-2.17.34-1.18.68-2.42.33-1.24.63-2.44.29-1.19.52-2.22h3.07q-.52 1.89-1.06 3.71t-1.08 3.47q-.55 1.65-1.09 3.1t-1.06 2.58h-2.41q-.65-1.82-1.32-3.87-.68-2.05-1.24-4.22m-10.21 1.65q0 1.52-.44 2.78-.45 1.25-1.26 2.14-.81.88-1.95 1.38-1.15.49-2.52.49-1.38 0-2.51-.49-1.14-.5-1.95-1.38-.81-.89-1.26-2.14-.46-1.26-.46-2.78 0-1.53.46-2.77.45-1.24 1.27-2.13.83-.88 1.96-1.36t2.49-.48q1.35 0 2.49.48 1.15.48 1.96 1.36.81.89 1.26 2.13.46 1.24.46 2.77m-3.05 0q0-1.92-.82-3.04-.83-1.12-2.3-1.12-1.48 0-2.3 1.12-.83 1.12-.83 3.04 0 1.94.83 3.07.82 1.13 2.3 1.13 1.47 0 2.3-1.13.82-1.13.82-3.07m-16.36 4.3q1.19 0 1.73-.28t.54-.97q0-.64-.58-1.06t-1.91-.91q-.81-.29-1.48-.63-.68-.33-1.17-.77-.5-.44-.78-1.07t-.28-1.54q0-1.77 1.3-2.79 1.31-1.02 3.54-1.02 1.14 0 2.17.21t1.55.4l-.54 2.41q-.49-.22-1.26-.4-.76-.19-1.77-.19-.91 0-1.47.31-.57.31-.57.95 0 .32.11.56.11.25.38.46t.72.42q.44.21 1.08.43 1.06.39 1.8.77.73.38 1.21.86t.7 1.1q.22.61.22 1.47 0 1.85-1.36 2.8-1.36.94-3.9.94-1.7 0-2.73-.28t-1.45-.45l.51-2.49q.67.27 1.59.52.93.24 2.1.24m-17.31-10.3q.86-.25 2.24-.47t3.05-.22q1.57 0 2.63.43t1.69 1.2q.62.78.88 1.87.26 1.1.26 2.4v7.23h-2.98v-6.76q0-1.03-.13-1.76-.14-.73-.45-1.18-.3-.46-.83-.66-.53-.21-1.29-.21-.57 0-1.18.07-.62.07-.91.12v10.38h-2.98zm-8.49-.73q1.48 0 2.48.37 1.01.37 1.62 1.03.6.66.86 1.61.25.95.25 2.08v7.8q-.68.15-2.07.35-1.39.21-3.14.21-1.16 0-2.12-.22t-1.63-.71q-.68-.49-1.06-1.28t-.38-1.95q0-1.1.43-1.86.43-.77 1.17-1.25t1.71-.69q.97-.2 2.03-.2.49 0 1.03.06t1.16.21v-.5q0-.51-.13-.98-.12-.47-.43-.82-.3-.36-.81-.56-.5-.19-1.27-.19-1.03 0-1.89.14-.86.15-1.4.35l-.37-2.41q.57-.2 1.65-.4 1.08-.19 2.31-.19m.25 11.09q1.37 0 2.09-.15V76.9q-.25-.08-.72-.15-.46-.07-1.03-.07-.49 0-1 .07-.5.07-.91.27-.4.2-.65.55-.24.36-.24.9 0 1.06.66 1.47.66.4 1.8.4m-18.54-10.36q.86-.24 2.24-.46 1.38-.23 3.05-.23 1.58.01 2.63.44 1.06.43 1.69 1.2.62.78.88 1.87.26 1.1.26 2.4v7.23h-2.97v-6.76q0-1.04-.14-1.76-.13-.73-.44-1.18-.31-.46-.84-.67t-1.29-.2q-.57-.01-1.18.07-.62.07-.91.12v10.38h-2.98zm-11.12-6.64q.94 0 1.59.15t1.02.29l-.47 2.42q-.34-.13-.82-.23-.48-.09-1.05-.09-1.47 0-2.03.78-.55.79-.55 2.04v.87h4.72v2.48h-4.72v10.38h-2.98V68.66q0-2.51 1.31-3.92 1.3-1.4 3.98-1.4m7.97 2.46q0 .84-.54 1.33t-1.28.49q-.76 0-1.3-.49t-.54-1.33q0-.86.54-1.35t1.3-.49q.74 0 1.28.49t.54 1.35m-.34 16.63h-2.98V69.57h2.98zm-15.44-6.45q0 1.52-.45 2.78-.44 1.25-1.25 2.14-.81.88-1.96 1.38-1.14.49-2.52.49t-2.51-.49q-1.13-.5-1.94-1.38-.81-.89-1.27-2.14-.45-1.26-.45-2.78 0-1.53.45-2.77.46-1.24 1.28-2.13.82-.88 1.96-1.36 1.13-.48 2.48-.48t2.5.48q1.14.48 1.95 1.36.81.89 1.27 2.13.45 1.24.46 2.77m-3.06 0q0-1.92-.82-3.04t-2.3-1.12-2.3 1.12-.82 3.04q0 1.94.82 3.07.82 1.14 2.3 1.14t2.3-1.14q.82-1.13.82-3.07m-11.55-2.09q0 2.21-.69 3.85-.69 1.63-1.96 2.73-1.27 1.09-3.05 1.62t-3.95.53q-1.03 0-2.33-.09-1.31-.08-2.49-.35V65.62q1.18-.27 2.51-.34 1.33-.08 2.36-.08 2.14 0 3.91.51 1.77.5 3.04 1.57t1.96 2.71q.69 1.63.69 3.9m-11.37 5.98q.27.02.71.03.45.02 1.21.02 3.12 0 4.66-1.59t1.54-4.44q0-2.9-1.5-4.45t-4.65-1.55q-1.38 0-1.97.07z" class="s0"/><path d="M1205.21 132.03h-127.55V46.99h127.55z" class="s4"/><path d="m1141.43 57.13 1.05 3.2h3.36l-2.72 1.98 1.04 3.2-2.73-1.98-2.72 1.98 1.04-3.2-2.72-1.98h3.36zM1141.43 113.23l1.05 3.2h3.36l-2.72 1.98 1.04 3.21-2.73-1.98-2.72 1.98 1.04-3.21-2.72-1.98h3.36zM1113.6 85.05l1.04 3.2h3.36l-2.72 1.98 1.04 3.2-2.72-1.98-2.73 1.98 1.05-3.2-2.73-1.98h3.37zM1169.27 85.05l1.04 3.2h3.37l-2.73 1.98 1.04 3.2-2.72-1.98-2.72 1.98 1.04-3.2-2.73-1.98h3.37zM1155.3 60.98l1.04 3.2h3.36l-2.72 1.98 1.04 3.2-2.72-1.98-2.73 1.98 1.04-3.2-2.72-1.98h3.36zM1127.57 60.98l1.04 3.2h3.37l-2.72 1.98 1.04 3.2-2.73-1.98-2.72 1.98 1.04-3.2-2.72-1.98h3.36zM1155.3 109.14l1.04 3.2h3.36l-2.72 1.98 1.04 3.2-2.72-1.98-2.73 1.98 1.04-3.2-2.72-1.98h3.36zM1127.57 109.14l1.04 3.2h3.37l-2.72 1.98 1.04 3.2-2.73-1.98-2.72 1.98 1.04-3.2-2.72-1.98h3.36zM1165.5 71.04l1.04 3.21h3.37l-2.73 1.97 1.05 3.21-2.73-1.98-2.72 1.98 1.04-3.21-2.73-1.97h3.37zM1117.37 71.04l1.04 3.21h3.37l-2.73 1.97 1.04 3.21-2.72-1.98-2.72 1.98 1.03-3.21-2.72-1.97h3.37zM1165.5 98.91l1.04 3.2h3.37l-2.73 1.98 1.05 3.2-2.73-1.98-2.72 1.98 1.04-3.2-2.73-1.98h3.37zM1117.37 98.91l1.04 3.2h3.37l-2.73 1.98 1.04 3.2-2.72-1.98-2.72 1.98 1.03-3.2-2.72-1.98h3.37z" class="s5"/><path d="m85.04 142.65-56.69-10.63V46.98l56.69-17.71z" class="s4"/><path d="M28.36 111.59V89.51c2.86.77 6.03 1.14 8.12-.12C41.06 86.65 48 78.29 48 78.29s-3.66 9.02-2.28 12.33c1.46 3.52 10.12 3.71 10.12 3.71s-9.79 5.95-14.35 9.9c-4.69 4.03-7.94 18.83-7.94 18.83s-2.27-9.49-5.19-11.47" class="s5"/><path d="M85.04 72.63c-1.96 1.24-3.88 2.21-5.33 2.5-4.55.88-9.43-4.36-9.43-4.36s1.15 7.65-1.72 12.37c-3.02 4.96-12.72 11.19-12.72 11.19s10.72-2.08 12.81 1.25c2.22 3.56 2.51 15.99 2.51 15.99s5.47-14.92 10.42-16.95c.97-.41 2.18-.79 3.46-1.16z" style="fill:#e21d2c"/><path d="M48 78.29s5.48-8.59 5.15-11.64c-.33-2.9-6.01-3.95-6.01-3.95s7.44-1.83 10.68-4.75c3.13-2.82 5.87-8.66 5.87-8.66s.69 4.84 3.47 5.53c2.88.72 10.55-2.37 10.55-2.37s-6.06 5.73-8.43 8.85c-2.49 3.27 1 9.47 1 9.47s-6.43-2.24-10.03-1.56C56.71 69.88 48 78.29 48 78.29" class="s1"/><path fill-rule="evenodd" d="M117.89 110.37q-.89.27-2.23.49t-2.81.22q-1.53 0-2.73-.46-1.21-.47-2.06-1.35-.85-.87-1.3-2.11-.46-1.24-.46-2.79 0-1.53.38-2.77.39-1.24 1.12-2.13.74-.88 1.8-1.36t2.44-.48q.93 0 1.64.22.72.22 1.23.49v-6.18l2.98-.49zm-8.54-6.07q0 1.96.94 3.08.93 1.12 2.58 1.12.71 0 1.22-.06.5-.06.82-.13v-7.38q-.39-.27-1.04-.51-.65-.23-1.39-.23-1.63 0-2.38 1.1-.75 1.11-.75 3.01" class="s0"/><path d="M125.91 111.01q-1.33-.03-2.2-.3-.88-.27-1.39-.77-.52-.51-.73-1.26t-.21-1.71V92.16l2.98-.49v14.74q0 .54.09.91.08.37.3.63.22.25.61.39.38.13.97.21z" class="s0"/><path fill-rule="evenodd" d="M133.02 97.58q1.47 0 2.48.37 1.01.36 1.62 1.03.6.66.86 1.61.25.95.25 2.08v7.8q-.68.14-2.07.35t-3.14.21q-1.16 0-2.12-.22t-1.63-.71q-.68-.49-1.06-1.28t-.38-1.94q0-1.11.43-1.87.43-.77 1.17-1.25t1.71-.68q.97-.21 2.03-.21.49 0 1.03.06t1.16.21v-.5q0-.51-.13-.98-.12-.47-.43-.82-.3-.36-.81-.56-.5-.19-1.27-.19-1.03 0-1.89.14-.86.15-1.4.35l-.37-2.41q.56-.2 1.65-.4 1.08-.19 2.31-.19m.24 11.09q1.38 0 2.1-.15v-3.29q-.25-.08-.72-.15t-1.03-.07q-.49 0-1 .07-.5.07-.91.27-.4.2-.65.55-.25.36-.25.9 0 1.06.67 1.47.66.4 1.79.4M152.6 93.54q3.69 0 5.65 1.36 1.95 1.35 1.95 4.13 0 3.47-3.42 4.7.47.56 1.06 1.37.59.82 1.2 1.76.62.95 1.19 1.95.56.99 1 1.95h-3.46q-.47-.88-1.01-1.78t-1.1-1.75q-.55-.85-1.09-1.6t-1.01-1.34q-.35.03-.59.03H151v6.44h-3.1v-16.8q1.13-.25 2.41-.33 1.28-.09 2.29-.09m.22 2.68q-.98 0-1.82.08v5.51h1.35q1.14 0 2-.13.86-.12 1.44-.44.57-.32.87-.86.29-.54.29-1.38 0-.78-.29-1.33-.3-.54-.85-.86t-1.32-.45q-.76-.14-1.67-.14M174.84 104.32q0 1.52-.44 2.78-.44 1.25-1.25 2.14-.82.88-1.96 1.38-1.14.49-2.52.49t-2.51-.49q-1.13-.5-1.94-1.38-.82-.89-1.27-2.14-.46-1.26-.46-2.78 0-1.53.46-2.77.45-1.24 1.28-2.13.82-.88 1.95-1.36 1.14-.48 2.49-.48t2.5.48q1.14.48 1.95 1.36.81.89 1.27 2.13.45 1.24.45 2.77m-3.05 0q0-1.92-.82-3.04-.83-1.12-2.3-1.12-1.48 0-2.3 1.12-.83 1.12-.83 3.04 0 1.94.83 3.07.82 1.13 2.3 1.13 1.47 0 2.3-1.13.82-1.13.82-3.07" class="s0"/><path d="M186.23 99.99q-.49.51-1.29 1.45-.8.93-1.71 2.08-.91 1.14-1.84 2.38-.92 1.25-1.66 2.38h6.65v2.48h-10.24v-1.84q.54-.99 1.36-2.14.81-1.16 1.67-2.33t1.71-2.22q.85-1.06 1.51-1.85h-5.93V97.9h9.77zM196.97 102.67q-.57 2.16-1.22 4.22-.65 2.05-1.29 3.87h-2.45q-.49-1.13-1.03-2.58t-1.08-3.1q-.55-1.65-1.09-3.47t-1.06-3.71h3.15q.22 1.03.52 2.22.3 1.2.62 2.44t.67 2.42q.34 1.18.69 2.17.37-1.13.73-2.34.35-1.21.67-2.41.32-1.21.61-2.35.28-1.14.5-2.15h2.29q.22 1.01.49 2.15t.58 2.35q.31 1.2.66 2.41.36 1.21.73 2.34.32-.99.66-2.17.35-1.18.68-2.42.34-1.24.63-2.44.3-1.19.52-2.22h3.08q-.52 1.89-1.06 3.71t-1.09 3.47q-.54 1.65-1.08 3.1t-1.06 2.58h-2.42q-.64-1.82-1.31-3.87-.68-2.06-1.24-4.22" class="s0"/><path fill-rule="evenodd" d="M219.51 104.32q0 1.52-.45 2.78-.44 1.25-1.25 2.14-.81.88-1.96 1.38-1.14.49-2.52.49t-2.51-.49q-1.13-.5-1.94-1.38-.81-.89-1.27-2.14-.45-1.26-.45-2.78 0-1.53.45-2.77.46-1.24 1.28-2.13.83-.88 1.96-1.36t2.48-.48q1.36 0 2.5.48t1.96 1.36q.81.89 1.26 2.13.46 1.24.46 2.77m-3.05 0q0-1.92-.83-3.04-.82-1.12-2.3-1.12-1.47 0-2.3 1.12-.82 1.12-.82 3.04 0 1.94.82 3.07.83 1.13 2.3 1.13 1.48 0 2.3-1.13.83-1.13.83-3.07" class="s0"/><path d="M220.6 115.34q-.32 0-.9-.06-.58-.07-1.02-.24l.39-2.43q.55.17 1.31.17 1.03 0 1.45-.6.42-.61.42-1.81V97.9h2.97v12.52q0 2.51-1.19 3.71-1.19 1.21-3.43 1.21m4.94-21.21q0 .84-.54 1.33t-1.28.49q-.76 0-1.3-.49t-.54-1.33q0-.86.54-1.35t1.3-.49q.74 0 1.28.49t.54 1.35M239.18 110.37q-.86.22-2.24.45-1.38.24-3.02.24-1.55 0-2.6-.44-1.04-.45-1.67-1.24-.63-.78-.9-1.88-.27-1.09-.27-2.4v-7.2h2.98v6.74q0 2.06.6 2.95.6.88 2.1.88.54 0 1.15-.04.6-.05.89-.13V97.9h2.98zM252.59 108.45q1.67 0 2.43-.57.77-.56.77-1.59 0-.62-.26-1.06t-.74-.8-1.17-.67q-.69-.3-1.57-.6-.89-.32-1.71-.7-.83-.38-1.45-.95-.63-.56-1.01-1.35t-.38-1.89q0-2.32 1.6-3.63 1.59-1.32 4.35-1.32 1.6 0 2.84.36 1.24.35 1.96.77l-.96 2.51q-.84-.47-1.84-.71-.99-.25-2.05-.25-1.25 0-1.96.52-.7.52-.7 1.45 0 .57.24.97.23.41.66.73t1.01.59 1.27.51q1.2.45 2.15.9.95.46 1.6 1.08.65.63.99 1.48.35.85.35 2.06 0 2.31-1.64 3.57-1.63 1.27-4.78 1.27-1.06 0-1.93-.13-.88-.14-1.55-.34-.68-.19-1.17-.4t-.79-.38l.91-2.54q.67.37 1.8.74t2.73.37" class="s0"/><path fill-rule="evenodd" d="M273.17 104.34q0 1.48-.38 2.71t-1.09 2.11q-.72.89-1.79 1.38t-2.42.49q-.91 0-1.67-.22-.77-.22-1.26-.49v4.99h-2.98v-17q.91-.24 2.24-.46t2.81-.22q1.52 0 2.73.46 1.2.47 2.05 1.34.85.88 1.31 2.12.45 1.24.45 2.79m-3.05.05q0-1.99-.9-3.1-.89-1.11-2.89-1.11-.42 0-.87.04-.46.04-.9.16v7.36q.39.27 1.05.5.65.23 1.39.23 1.62 0 2.37-1.1.75-1.11.75-2.98M287.37 104.32q0 1.52-.45 2.78-.44 1.25-1.25 2.14-.81.88-1.96 1.38-1.14.49-2.52.49t-2.51-.49q-1.13-.5-1.94-1.38-.81-.89-1.27-2.14-.45-1.26-.45-2.78 0-1.53.45-2.77.46-1.24 1.28-2.13.83-.88 1.96-1.36t2.48-.48 2.5.48q1.14.48 1.95 1.36.82.89 1.27 2.13.46 1.24.46 2.77m-3.05 0q0-1.92-.83-3.04-.82-1.12-2.3-1.12-1.47 0-2.3 1.12-.82 1.12-.82 3.04 0 1.94.82 3.07.83 1.13 2.3 1.13 1.48 0 2.3-1.13.83-1.13.83-3.07" class="s0"/><path d="m288.43 101.34 2.41-1.21v-7.97l2.98-.49v6.96l1.77-.91.94 1.9-2.71 1.38v5.41q0 .54.09.91.08.37.3.63.22.25.61.39.38.13.97.21l-.42 2.46q-1.33-.03-2.2-.3t-1.39-.77q-.52-.51-.73-1.26t-.21-1.71v-4.47l-1.45.73z" class="s0"/><path fill-rule="evenodd" d="M297.76 104.39q0-1.7.51-2.98.5-1.27 1.34-2.12.83-.85 1.92-1.28 1.08-.43 2.21-.43 2.66 0 4.15 1.64 1.48 1.65 1.48 4.93 0 .24-.01.55t-.03.55h-8.49q.12 1.55 1.09 2.4t2.82.85q1.08 0 1.98-.2.9-.19 1.41-.42l.4 2.44q-.25.12-.68.26-.43.13-.98.24-.56.11-1.2.19-.64.07-1.3.07-1.7 0-2.95-.5-1.26-.51-2.07-1.4-.81-.9-1.2-2.12-.4-1.22-.4-2.67m8.64-1.33q0-.61-.17-1.17-.18-.55-.51-.96-.33-.4-.81-.64-.48-.23-1.14-.23-.69 0-1.21.26t-.87.68q-.36.41-.56.96-.19.54-.27 1.1z" class="s0"/><path d="M311.5 104.34q0-1.43.45-2.67.44-1.24 1.26-2.15.83-.91 2.01-1.43 1.18-.51 2.65-.51 1.82 0 3.45.66l-.64 2.44q-.52-.22-1.17-.37t-1.39-.15q-1.75 0-2.66 1.09-.91 1.1-.91 3.09 0 1.92.86 3.04t2.91 1.12q.76 0 1.5-.15.73-.15 1.28-.37l.41 2.46q-.49.25-1.48.45-1 .19-2.06.19-1.65 0-2.86-.5-1.22-.51-2.02-1.4-.8-.9-1.19-2.14-.4-1.25-.4-2.7M333.42 99.99q-.49.51-1.29 1.45-.8.93-1.71 2.08-.91 1.14-1.83 2.38-.93 1.25-1.66 2.38h6.64v2.48h-10.24v-1.84q.55-.99 1.36-2.14.81-1.16 1.67-2.33t1.71-2.22q.85-1.06 1.51-1.85h-5.93V97.9h9.77zM336.07 98.31q.86-.24 2.24-.46t3.05-.22q1.58 0 2.64.43 1.05.43 1.68 1.2.63.78.89 1.87.25 1.1.25 2.4v7.23h-2.97V104q0-1.04-.14-1.76-.13-.73-.44-1.18-.31-.46-.84-.67t-1.29-.21q-.57 0-1.18.08-.61.07-.91.12v10.38h-2.98z" class="s0"/><path fill-rule="evenodd" d="M349.2 104.39q0-1.7.51-2.98.5-1.27 1.34-2.12t1.92-1.28 2.21-.43q2.66 0 4.15 1.64 1.49 1.65 1.49 4.93 0 .24-.02.55-.01.31-.03.55h-8.49q.12 1.55 1.09 2.4.98.85 2.82.85 1.08 0 1.98-.2.9-.19 1.42-.42l.39 2.44q-.25.12-.68.26-.43.13-.98.24t-1.19.19q-.64.07-1.31.07-1.69 0-2.95-.5-1.25-.51-2.07-1.4-.81-.9-1.2-2.12-.4-1.22-.4-2.67m8.64-1.33q0-.61-.17-1.17-.17-.55-.51-.96-.33-.4-.81-.64-.48-.23-1.14-.23-.69 0-1.21.26-.51.26-.87.68-.36.41-.55.96-.2.54-.28 1.1zM374.04 109.46q0 3.07-1.56 4.5t-4.78 1.43q-1.19 0-2.31-.2t-2.02-.52l.54-2.53q.76.32 1.73.52.97.19 2.1.19 1.8 0 2.56-.73.76-.74.77-2.19v-.5q-.45.23-1.17.45-.73.22-1.66.22-1.23 0-2.25-.4-1.03-.39-1.75-1.15-.73-.76-1.13-1.91-.41-1.14-.41-2.64 0-1.41.43-2.59t1.26-2.01q.82-.84 2-1.31 1.18-.46 2.68-.46 1.45 0 2.76.22 1.3.22 2.21.46zm-8.29-5.46q0 1.9.83 2.77.82.87 2.12.87.72 0 1.34-.19.63-.2 1.03-.47v-6.67q-.33-.07-.79-.13-.47-.06-1.18-.06-1.63 0-2.49 1.07t-.86 2.81M388.83 104.32q0 1.52-.44 2.78-.44 1.25-1.25 2.14-.82.88-1.96 1.38-1.14.49-2.52.49t-2.51-.49q-1.13-.5-1.94-1.38-.82-.89-1.27-2.14-.46-1.26-.46-2.78 0-1.53.46-2.77.45-1.24 1.28-2.13.82-.88 1.95-1.36 1.14-.48 2.49-.48t2.5.48q1.14.48 1.95 1.36.81.89 1.27 2.13.45 1.24.45 2.77m-3.05 0q0-1.92-.82-3.04-.83-1.12-2.3-1.12-1.48 0-2.3 1.12-.83 1.12-.83 3.04 0 1.94.83 3.07.82 1.13 2.3 1.13 1.47 0 2.3-1.13.82-1.13.82-3.07" class="s0"/><path d="M106.31 82.42V65.37h10.77V68h-7.67v4.35h6.81v2.64h-6.81v7.43zM129.55 82.02q-.86.22-2.24.46-1.37.23-3.02.23-1.55 0-2.6-.44-1.04-.44-1.67-1.23t-.9-1.88q-.27-1.1-.27-2.4v-7.21h2.98v6.74q0 2.07.6 2.95.6.89 2.1.89.55 0 1.15-.05t.9-.12V69.55h2.97zM132.92 69.97q.86-.25 2.24-.47t3.05-.22q1.58 0 2.63.43 1.06.43 1.69 1.21.63.77.88 1.87.26 1.09.26 2.39v7.24h-2.97v-6.77q0-1.03-.14-1.76-.13-.72-.44-1.18-.31-.45-.84-.66t-1.29-.21q-.57 0-1.18.07-.62.08-.91.13v10.38h-2.98z" class="s0"/><path fill-rule="evenodd" d="M157.87 82.02q-.89.27-2.23.5-1.34.22-2.82.22-1.52 0-2.73-.47-1.2-.47-2.05-1.34t-1.3-2.12q-.46-1.24-.46-2.79 0-1.52.38-2.77.38-1.24 1.12-2.13.74-.88 1.8-1.36 1.05-.48 2.43-.48.94 0 1.65.22t1.23.49v-6.17l2.98-.49zm-8.54-6.08q0 1.97.94 3.09.93 1.12 2.58 1.12.71 0 1.22-.06.5-.07.82-.14v-7.38q-.39-.27-1.05-.5-.65-.24-1.39-.24-1.62 0-2.37 1.11t-.75 3" class="s0"/><path d="M171.82 82.02q-.87.22-2.24.46-1.38.23-3.03.23-1.55 0-2.59-.44-1.05-.44-1.68-1.23-.62-.79-.9-1.88-.27-1.1-.27-2.4v-7.21h2.98v6.74q0 2.07.6 2.95.61.89 2.11.89.54 0 1.14-.05t.9-.12V69.55h2.98zM178.58 80.28q1.18 0 1.72-.29.54-.28.54-.97 0-.64-.58-1.06-.57-.41-1.9-.91-.81-.29-1.49-.62-.68-.34-1.17-.78t-.77-1.07q-.29-.63-.29-1.54 0-1.77 1.31-2.79 1.3-1.02 3.54-1.02 1.13 0 2.16.21 1.04.21 1.55.41l-.54 2.41q-.49-.23-1.25-.41t-1.77-.18q-.91 0-1.48.3-.56.31-.56.95 0 .32.11.57.11.24.38.45t.71.42 1.08.43q1.06.39 1.8.78.74.38 1.22.86t.7 1.09q.22.62.22 1.48 0 1.84-1.37 2.79-1.36.95-3.89.95-1.7 0-2.74-.29-1.03-.28-1.45-.45l.52-2.49q.66.27 1.59.52.92.25 2.1.25M195.58 71.64q-.49.52-1.29 1.45-.8.94-1.71 2.08-.91 1.15-1.84 2.39-.92 1.24-1.66 2.37h6.65v2.49h-10.24v-1.85q.54-.98 1.36-2.14.81-1.15 1.67-2.32t1.71-2.23 1.51-1.84h-5.93v-2.49h9.77z" class="s0"/><path fill-rule="evenodd" d="M197.25 76.04q0-1.69.5-2.97.51-1.28 1.35-2.13.83-.85 1.91-1.28 1.09-.43 2.22-.43 2.65 0 4.14 1.65t1.49 4.92q0 .25-.01.55-.01.31-.04.56h-8.48q.12 1.55 1.09 2.39.97.85 2.82.85 1.08 0 1.98-.19.9-.2 1.41-.42l.4 2.43q-.25.13-.68.26-.43.14-.99.25-.55.11-1.19.18-.64.08-1.3.08-1.7 0-2.95-.51-1.26-.5-2.07-1.4t-1.21-2.12q-.39-1.21-.39-2.67m8.64-1.32q0-.62-.18-1.17-.17-.56-.5-.96-.33-.41-.81-.64t-1.15-.23q-.69 0-1.2.25-.52.26-.88.68-.35.42-.55.96t-.27 1.11z" class="s0"/><path d="M219.71 82.42V65.37h10.95V68h-7.85v4.21h6.99v2.58h-6.99v4.99h8.44v2.64zM244.09 82.02q-.86.22-2.24.46-1.38.23-3.03.23-1.55 0-2.59-.44-1.05-.44-1.67-1.23-.63-.79-.9-1.88-.27-1.1-.27-2.4v-7.21h2.97v6.74q0 2.07.61 2.95.6.89 2.1.89.54 0 1.14-.05.61-.05.9-.12V69.55h2.98zM254.79 72.23q-.37-.12-1.02-.26-.65-.13-1.51-.13-.5 0-1.05.1t-.77.17v10.31h-2.98V70.17q.86-.32 2.15-.61 1.29-.28 2.87-.28.29 0 .69.04.39.03.78.1.4.06.77.14.37.09.59.16z" class="s0"/><path fill-rule="evenodd" d="M268.62 75.97q0 1.53-.45 2.78-.44 1.26-1.25 2.14-.81.89-1.96 1.38-1.14.49-2.52.49t-2.51-.49-1.94-1.38q-.81-.88-1.27-2.14-.45-1.25-.45-2.78 0-1.52.45-2.77.46-1.24 1.28-2.12.82-.89 1.96-1.37 1.13-.48 2.48-.48t2.5.48q1.14.48 1.95 1.37.81.88 1.27 2.12.45 1.25.46 2.77m-3.06 0q0-1.92-.82-3.04t-2.3-1.12-2.3 1.12-.82 3.04q0 1.94.82 3.08.82 1.13 2.3 1.13t2.3-1.13q.82-1.14.82-3.08M282.96 76q0 1.47-.38 2.7-.39 1.23-1.1 2.12-.71.88-1.78 1.38-1.07.49-2.43.49-.91 0-1.67-.22-.76-.23-1.25-.5v5h-2.98v-17q.91-.25 2.24-.47t2.8-.22q1.53 0 2.73.47 1.21.46 2.06 1.34.85.87 1.3 2.11.46 1.25.46 2.8m-3.05.04q0-1.99-.9-3.09-.9-1.11-2.89-1.11-.42 0-.88.04-.45.03-.89.16v7.35q.39.27 1.04.5.65.24 1.39.24 1.62 0 2.38-1.11.75-1.11.75-2.98M285.02 76.04q0-1.69.51-2.97.5-1.28 1.34-2.13.83-.85 1.92-1.28 1.08-.43 2.21-.43 2.66 0 4.15 1.65 1.48 1.65 1.48 4.92 0 .25-.01.55-.01.31-.04.56h-8.48q.12 1.55 1.09 2.39.97.85 2.82.85 1.08 0 1.98-.19.9-.2 1.41-.42l.4 2.43q-.25.13-.68.26-.43.14-.98.25-.56.11-1.2.18-.64.08-1.3.08-1.7 0-2.95-.51-1.26-.5-2.07-1.4t-1.2-2.12q-.4-1.21-.4-2.67m8.64-1.32q0-.62-.17-1.17-.18-.56-.51-.96-.33-.41-.81-.64t-1.14-.23q-.69 0-1.21.25-.52.26-.87.68-.36.42-.56.96-.19.54-.27 1.11z" class="s0"/><path d="M297.86 86.99q-.32 0-.89-.06-.58-.06-1.02-.23l.39-2.44q.54.17 1.3.17 1.03 0 1.45-.6t.42-1.81V69.55h2.98v12.52q0 2.51-1.19 3.72-1.2 1.2-3.44 1.2m4.95-21.2q0 .83-.54 1.33-.54.49-1.28.49-.76 0-1.31-.49-.54-.5-.54-1.33 0-.86.54-1.36.55-.49 1.31-.49.74 0 1.28.49.54.5.54 1.36M309.23 80.28q1.18 0 1.72-.29.54-.28.54-.97 0-.64-.58-1.06-.57-.41-1.9-.91-.82-.29-1.49-.62-.68-.34-1.17-.78t-.77-1.07q-.29-.63-.29-1.54 0-1.77 1.31-2.79 1.3-1.02 3.54-1.02 1.13 0 2.16.21 1.04.21 1.55.41l-.54 2.41q-.49-.23-1.25-.41t-1.77-.18q-.91 0-1.48.3-.56.31-.56.95 0 .32.11.57.11.24.38.45t.71.42 1.08.43q1.06.39 1.8.78.74.38 1.22.86t.7 1.09q.22.62.22 1.48 0 1.84-1.37 2.79-1.36.95-3.9.95-1.69 0-2.73-.29-1.03-.28-1.45-.45l.52-2.49q.66.27 1.59.52.92.25 2.1.25M319.91 74.57q.56-.59 1.2-1.27.64-.67 1.26-1.35.61-.68 1.16-1.3.56-.63.95-1.1H328q-1.23 1.38-2.59 2.85-1.36 1.48-2.74 2.88.74.62 1.55 1.49t1.57 1.86q.76.98 1.42 1.97.67.98 1.11 1.82h-3.45q-.44-.77-1.02-1.6-.58-.84-1.24-1.63-.66-.78-1.35-1.48-.69-.71-1.35-1.2v5.91h-2.98v-18.6l2.98-.49zM333.61 65.79q0 .83-.54 1.33-.55.49-1.28.49-.77 0-1.31-.49-.54-.5-.54-1.33 0-.86.54-1.36.54-.49 1.31-.49.73 0 1.28.49.54.5.54 1.36m-.32 16.63h-2.98V69.55h2.98z" class="s0"/><path fill-rule="evenodd" d="M335.65 76.04q0-1.69.5-2.97.51-1.28 1.34-2.13.84-.85 1.92-1.28t2.22-.43q2.65 0 4.14 1.65t1.49 4.92q0 .25-.01.55-.01.31-.04.56h-8.49q.13 1.55 1.1 2.39.97.85 2.81.85 1.09 0 1.99-.19.89-.2 1.41-.42l.39 2.43q-.24.13-.67.26-.43.14-.99.25-.55.11-1.19.18-.64.08-1.3.08-1.7 0-2.96-.51-1.25-.5-2.06-1.4-.82-.9-1.21-2.12-.39-1.21-.39-2.67m8.63-1.32q0-.62-.17-1.17-.17-.56-.5-.96-.34-.41-.82-.64t-1.14-.23q-.69 0-1.2.25-.52.26-.88.68t-.55.96q-.2.54-.27 1.11z" class="s0"/></g></svg>