<svg xmlns="http://www.w3.org/2000/svg" viewBox="0 0 224.5 39.2"><path d="M67.6 20.2c0 1.4.1 2.8.3 4.2.2 1.1.5 2.2 1 3.1.4.8 1 1.5 1.8 2 2.2 1.4 5.2.8 6.7-1.4l.3-.6c.5-1 .8-2 1-3.1a29.663 29.663 0 000-8.4c-.2-1.1-.5-2.2-1-3.1-.4-.8-1-1.5-1.7-2-.8-.5-1.7-.7-2.6-.7-.9 0-1.8.2-2.6.7-.8.5-1.4 1.2-1.8 2-.5 1-.8 2.1-1 3.1-.3 1.3-.4 2.8-.4 4.2m16.8 0c0 1.7-.2 3.4-.7 5-.5 1.4-1.2 2.7-2.2 3.8-1 1.1-2.2 1.9-3.5 2.5-1.5.6-3.1.9-4.8.9-1.7 0-3.4-.3-4.9-.9-1.3-.5-2.5-1.4-3.5-2.5s-1.7-2.4-2.1-3.9c-.5-1.6-.7-3.3-.7-5 0-1.7.2-3.4.7-5a9.5 9.5 0 012.1-3.8c1-1.1 2.2-1.9 3.5-2.4 1.6-.6 3.3-.9 5-.9 1.6 0 3.2.3 4.7.9 1.3.5 2.5 1.4 3.5 2.5s1.7 2.4 2.2 3.8c.5 1.6.7 3.3.7 5m22.5-.4c0-3.2-.6-5.5-1.7-7-1.2-1.6-3.1-2.5-5.1-2.4h-1.9V30h1.9c1 0 2.1-.2 3-.7.9-.5 1.6-1.2 2.2-2 .6-1 1.1-2.1 1.3-3.2.2-1.4.3-2.8.3-4.3m5.6 0c0 1.7-.2 3.4-.7 5-.5 1.4-1.2 2.8-2.2 3.9-1 1.1-2.3 2-3.7 2.5-1.6.6-3.3.9-5.1.9h-11v-1.8h1.4c.2 0 .5 0 .7-.1.2 0 .4-.2.5-.3.2-.2.3-.4.3-.6.1-.4.1-.7.1-1.1v-16c0-.4 0-.7-.1-1.1-.1-.2-.2-.4-.4-.6-.2-.1-.3-.2-.5-.3-.2 0-.4-.1-.7-.1h-1.4V8.4h10.9c1.7 0 3.3.2 4.9.7 1.4.4 2.6 1.2 3.7 2.2 1 1 1.8 2.2 2.3 3.6.7 1.5 1 3.2 1 4.9M126.2 30h6.6c.3 0 .6-.1.9-.2.2-.1.4-.3.6-.5.2-.2.3-.5.4-.8.1-.3.2-.7.2-1l.3-1.5h2.3l-.2 6.1h-19.4v-1.7h1.4c.2 0 .4 0 .7-.1.2 0 .4-.1.5-.3.2-.2.3-.4.4-.6.1-.3.1-.7.1-1v-16c0-.4 0-.8-.1-1.1-.1-.2-.2-.5-.3-.6-.1-.1-.3-.3-.5-.3s-.5-.1-.7-.1H118V8.4h18.4l.1 6.1H134l-.2-1.6c0-.7-.3-1.3-.6-1.9-.4-.5-.9-.7-1.5-.6h-5.6v8.3h7.8v2h-7.8l.1 9.3zm23.7 2.3c-1.3 0-2.5-.1-3.7-.4-.9-.2-1.7-.6-2.4-1.1-1-.7-1.7-1.9-1.7-3.1 0-.5.1-1 .3-1.4.2-.4.5-.7.8-1 .4-.3.8-.4 1.2-.5.5-.1.9-.2 1.4-.2 0 .8.1 1.7.3 2.5.2.7.5 1.3.9 1.8s.9.9 1.4 1.1c.6.2 1.2.4 1.8.4.6 0 1.2-.1 1.7-.3.5-.2.9-.4 1.3-.8.4-.3.6-.7.8-1.1.2-.4.3-.9.3-1.4 0-.5-.1-1-.3-1.5-.2-.5-.6-.9-1-1.2-.5-.4-1.1-.8-1.8-1.1-.7-.3-1.5-.7-2.4-1.1-1-.4-2-.9-2.9-1.5-.7-.4-1.4-1-1.9-1.6-.5-.6-.8-1.2-1-1.9-.2-.7-.3-1.5-.3-2.2 0-1 .2-1.9.6-2.8.4-.8 1-1.5 1.7-2.1.8-.6 1.6-1.1 2.6-1.4 1-.3 2.1-.5 3.2-.5s2.1.1 3.1.3c.8.2 1.5.4 2.2.8.5.3 1 .7 1.3 1.2.3.5.4 1 .4 1.5 0 .4-.1.7-.2 1.1-.2.3-.4.6-.8.9-.4.3-.8.5-1.3.6-.6.2-1.2.2-1.8.2 0-.5-.1-1-.2-1.5s-.3-1-.6-1.5c-.3-.4-.7-.8-1.1-1.1-.5-.3-1.1-.5-1.6-.4-.4 0-.9.1-1.3.2s-.7.3-1 .6c-.3.3-.5.6-.7 1-.2.4-.3.9-.3 1.3s.1.9.2 1.3c.2.5.5.9.8 1.2.5.5 1.1.9 1.7 1.2.9.5 1.8.9 2.7 1.3 1 .4 2 .9 2.9 1.4.7.4 1.4 1 2 1.6.5.5.9 1.2 1.1 1.8.5 1.7.4 3.5-.3 5.1-.4.9-1 1.7-1.8 2.3-.8.7-1.8 1.2-2.8 1.5-.9.4-2.2.6-3.5.5m33.2-22.2L170.6 30h7.1c.6 0 1.1-.1 1.7-.3.4-.2.7-.4 1-.8.3-.3.4-.7.6-1.1.1-.4.2-.8.2-1.2l.2-1.5h2.4l-.1 6.8h-19v-1.6l12.4-20h-6.5c-.4 0-.9.1-1.3.2-.3.1-.6.3-.8.6-.2.3-.4.6-.4 1-.1.4-.2.8-.2 1.2l-.2 1.8h-2.4l.2-6.8h17.7l-.1 1.8zm5.7 21.9v-1.7h1.4c.2 0 .5 0 .7-.1.2 0 .4-.2.5-.3.2-.2.3-.4.4-.6.1-.4.1-.7.1-1.1V12.3c0-.4 0-.8-.1-1.1-.1-.2-.2-.5-.4-.6-.1-.1-.3-.3-.5-.3-.2-.1-.4-.1-.7-.1h-1.4V8.4h11.4v1.8h-1.4c-.2 0-.4 0-.7.1-.2 0-.4.1-.5.3-.2.2-.3.4-.4.6-.1.3-.1.7-.1 1.1V30h6.1c.7 0 1.3-.2 1.8-.7.5-.6.8-1.4.9-2.1l.5-2.5h1.9l-.2 7.4-19.3-.1zm24.3 0v-1.7h1.4c.2 0 .5 0 .7-.1.2 0 .4-.2.5-.3.2-.2.3-.4.4-.6.1-.4.1-.7.1-1.1V12.3c0-.4 0-.8-.1-1.1-.1-.2-.2-.5-.4-.6-.1-.1-.3-.3-.5-.3-.2-.1-.5-.1-.7-.1h-1.4V8.4h11.4v1.8h-1.4c-.2 0-.5 0-.7.1-.2 0-.4.2-.5.3-.2.2-.3.4-.4.6-.1.4-.1.7-.1 1.1v15.8c0 .4 0 .8.1 1.1.1.2.2.5.4.6.1.1.3.3.5.3s.4.1.7.1h1.4V32h-11.4z" fill-rule="evenodd" clip-rule="evenodd" fill="#070707"/><linearGradient id="a" gradientUnits="userSpaceOnUse" x1="-369.913" y1="-2.15" x2="-369.913" y2="-1.15" gradientTransform="matrix(49.72 0 0 36.62 18415.39 81.7)"><stop offset="0" stop-color="#105efb"/><stop offset="1" stop-color="#ff9c7a"/></linearGradient><path d="M35.4 2c1.1-.6 2.4-.9 3.6-.9 2.8 0 5.4 1.6 6.7 4.1l.3.6c.8 1.9 2.7 3.1 4.7 3-2.9 0-5.3 2.4-5.3 5.3l.1 4.6c0 7-5.3 13-12.3 13.6 3.9-3.3 6.1-8.2 6.1-13.3.1-9.5-7.6-17.3-17.1-17.4 0 0 0 0 0 0H1.1C.4 12 7.8 21.2 18.1 22.8l1.5.2c4.7.8 8.1 3.8 8.1 8.4 0 2.4-.9 4.6-2.6 6.2" fill="none" stroke="url(#a)" stroke-width="2.1" stroke-linecap="square" stroke-linejoin="bevel"/><path d="M41.8 6.6c0 .9-.8 1.7-1.7 1.7-.9 0-1.7-.8-1.7-1.7 0-.9.8-1.7 1.7-1.7 1 0 1.7.7 1.7 1.7" fill-rule="evenodd" clip-rule="evenodd" fill="#105efb"/></svg>