<svg xmlns="http://www.w3.org/2000/svg" viewBox="0 0 500.98 334.53" version="1.0"><title>Email</title><path style="fill:none;stroke:#d40d07;stroke-width:5.71509552;stroke-linecap:round" d="m2.89 7.22 17.54 17.54M3.29 24.43 20.83 6.89M27.8 7.22l17.54 17.54M28.2 24.43 45.73 6.89M52.7 7.22l17.55 17.54M53.1 24.43 70.65 6.89M77.61 7.22l17.55 17.54M78.01 24.43 95.55 6.89M102.52 7.22l17.54 17.54M102.92 24.43l17.54-17.54M127.43 7.22l17.54 17.54M127.83 24.43l17.54-17.54M152.34 7.22l17.54 17.54M152.74 24.43l17.54-17.54M177.25 7.22l17.54 17.54M177.65 24.43l17.54-17.54M202.16 7.22l17.54 17.54M202.56 24.43l17.53-17.54M227.07 7.22l17.54 17.54M227.47 24.43 245 6.89M251.98 7.22l17.54 17.54M252.37 24.43l17.54-17.54M276.88 7.22l17.55 17.54M277.28 24.43l17.54-17.54M301.8 7.22l17.53 17.54M302.2 24.43l17.53-17.54M326.7 7.22l17.54 17.54M327.1 24.43l17.54-17.54M351.61 7.22l17.54 17.54M352 24.43l17.55-17.54M376.52 7.22l17.54 17.54M376.92 24.43l17.54-17.54M401.43 7.22l17.54 17.54M401.83 24.43l17.54-17.54M426.34 7.22l17.54 17.54M426.73 24.43l17.54-17.54M451.25 7.22l17.54 17.54M451.64 24.43l17.54-17.54M476.15 7.22l17.55 17.54M476.55 24.43 494.1 6.89M27.8 32.13l17.54 17.54M28.2 49.34l17.54-17.55M52.7 55.2l17.55 17.53M53.1 72.4l17.55-17.54M77.61 79.18l17.55 17.54M78.01 96.39l17.54-17.54M102.52 103.16l17.54 17.55M102.92 120.38l17.54-17.55M127.43 127.25l17.54 17.55M127.83 144.47l17.54-17.55M152.34 151.24l17.54 17.55M152.74 168.45l17.54-17.54M177.25 174.79l17.54 17.54M177.65 192l17.54-17.55M202.16 197.85l17.54 17.55M202.56 215.06l17.53-17.54M227.07 220.92l17.54 17.54M227.47 238.13 245 220.59M251.98 220.92l17.54 17.54M252.37 238.13l17.54-17.54M276.88 197.85l17.55 17.54M277.28 215.06l17.54-17.54M301.8 174.79l17.53 17.54M302.2 192l17.53-17.55M326.7 151.24l17.54 17.55M327.1 168.45l17.54-17.54M351.61 127.25l17.54 17.55M352 144.47l17.55-17.55M376.52 103.16l17.54 17.55M376.92 120.38l17.54-17.55M401.43 79.18l17.54 17.54M401.83 96.39l17.54-17.54M426.34 55.2l17.54 17.54M426.74 72.4l17.53-17.54M451.25 32.13l17.54 17.54M451.64 49.34l17.54-17.55M2.89 31.2l17.54 17.55M3.29 48.41l17.53-17.54M2.89 55.2l17.54 17.54M3.29 72.4l17.54-17.54M2.89 79.18l17.54 17.54M3.29 96.39l17.53-17.54M2.89 103.16l17.54 17.55M3.29 120.38l17.54-17.55M2.89 127.25l17.54 17.55M3.29 144.47l17.54-17.55M2.89 151.24l17.54 17.55M3.29 168.45l17.53-17.54M2.89 174.79l17.54 17.54M3.29 192l17.53-17.55M2.89 197.85l17.54 17.55M3.29 215.06l17.54-17.54M2.89 220.92l17.54 17.54M3.29 238.13l17.54-17.54M2.89 243.99l17.54 17.53M3.29 261.2l17.54-17.55M2.89 267.97l17.54 17.54M3.29 285.18l17.54-17.54M2.89 291.04l17.54 17.54M3.29 308.25l17.54-17.55M2.89 314.1l17.54 17.55M3.29 331.3l17.54-17.53M27.8 314.1l17.54 17.55M28.2 331.3l17.54-17.53M52.7 314.1l17.55 17.54M53.1 331.3l17.55-17.53M77.61 314.1l17.55 17.54M78.01 331.3l17.54-17.53M102.52 314.1l17.54 17.55M102.92 331.3l17.54-17.53M127.43 314.1l17.54 17.54M127.83 331.3l17.54-17.53M152.34 314.1l17.54 17.55M152.74 331.3l17.54-17.53M177.25 314.1l17.54 17.55M177.65 331.3l17.54-17.53M202.16 314.1l17.54 17.55M202.56 331.3l17.53-17.53M227.07 314.1l17.54 17.55M227.47 331.3 245 313.78M251.98 314.1l17.54 17.55M252.37 331.3l17.55-17.53M276.88 314.1l17.55 17.55M277.28 331.3l17.54-17.53M301.8 314.1l17.53 17.55M302.2 331.3l17.53-17.53M326.7 314.1l17.54 17.55M327.1 331.31l17.54-17.54M351.61 314.1l17.54 17.55M352 331.3l17.55-17.53M376.52 314.1l17.54 17.55M376.91 331.3l17.55-17.53M401.43 314.1l17.54 17.54M401.82 331.3l17.55-17.53M426.34 314.1l17.54 17.55M426.74 331.3l17.53-17.53M451.25 314.1l17.54 17.55M451.64 331.3l17.54-17.53M476.15 314.1l17.55 17.55M476.55 331.3l17.54-17.53M476.15 32.13l17.55 17.54M476.55 49.34l17.54-17.55M476.15 55.2l17.55 17.54M476.55 72.4l17.54-17.54M476.15 79.18l17.55 17.54M476.55 96.39l17.55-17.54M476.15 103.16l17.55 17.55M476.55 120.38l17.54-17.55M476.15 127.25l17.55 17.55M476.55 144.47l17.54-17.55M476.15 151.24l17.55 17.55M476.55 168.45l17.54-17.54M476.15 174.79l17.55 17.54M476.55 192l17.54-17.55M476.15 197.85l17.55 17.54M476.55 215.06l17.54-17.54M476.15 220.92l17.55 17.54M476.55 238.13l17.55-17.54M476.15 243.98l17.55 17.54M476.55 261.2l17.54-17.55M476.15 267.97l17.55 17.54M476.55 285.18l17.54-17.54M476.15 291.04l17.55 17.54M476.55 308.25l17.54-17.55M27.8 292.88l17.54 17.54M28.2 310.09l17.54-17.54M52.7 268.9l17.55 17.53M53.1 286.1l17.55-17.54M77.61 245.83l17.55 17.54M78.01 263.04l17.54-17.54M102.52 220.92l17.54 17.54M102.92 238.13l17.54-17.54M127.43 197.85l17.54 17.55M127.83 215.06l17.54-17.54M152.34 174.79l17.54 17.54M152.74 192l17.54-17.55M326.7 174.79l17.54 17.54M327.1 192l17.54-17.55M451.25 291.04l17.54 17.54M451.64 308.25l17.54-17.55M426.34 268.9l17.54 17.53M426.74 286.1l17.53-17.54M401.43 243.99l17.54 17.53M401.83 261.2l17.54-17.55M376.52 220.92l17.54 17.54M376.91 238.13l17.55-17.54M351.61 197.85l17.54 17.55M352 215.06l17.55-17.54" transform="translate(2.57 -2.57)"/></svg>