<svg xmlns="http://www.w3.org/2000/svg" viewBox="0 0 443.32 437.55" version="1.0"><title>Facebook</title><path d="M.5 0h4.1" transform="matrix(4.93954 -5.22976 5.31915 5.02397 90.14 59.28)" style="fill:none;stroke:#d40d07;stroke-linecap:round"/><path d="M.5 0h4.1" transform="matrix(-5.22976 -4.93954 5.02397 -5.31915 116.18 58.87)" style="fill:none;stroke:#d40d07;stroke-linecap:round"/><path d="M.5 0h4.1" transform="matrix(4.93954 -5.22976 5.31915 5.02397 119.4 59.28)" style="fill:none;stroke:#d40d07;stroke-linecap:round"/><path d="M.5 0h4.1" transform="matrix(-5.22976 -4.93954 5.02397 -5.31915 145.44 58.87)" style="fill:none;stroke:#d40d07;stroke-linecap:round"/><path d="M.5 0h4.1" transform="matrix(4.93954 -5.22976 5.31915 5.02397 149.3 59.28)" style="fill:none;stroke:#d40d07;stroke-linecap:round"/><path d="M.5 0h4.1" transform="matrix(-5.22976 -4.93954 5.02397 -5.31915 175.34 58.87)" style="fill:none;stroke:#d40d07;stroke-linecap:round"/><path d="M.5 0h4.1" transform="matrix(4.93954 -5.22976 5.31915 5.02397 178.66 59.28)" style="fill:none;stroke:#d40d07;stroke-linecap:round"/><path d="M.5 0h4.1" transform="matrix(-5.22976 -4.93954 5.02397 -5.31915 204.7 58.87)" style="fill:none;stroke:#d40d07;stroke-linecap:round"/><path d="M.5 0h4.1" transform="matrix(4.93954 -5.22976 5.31915 5.02397 208.39 59.28)" style="fill:none;stroke:#d40d07;stroke-linecap:round"/><path d="M.5 0h4.1" transform="matrix(-5.22976 -4.93954 5.02397 -5.31915 234.43 58.87)" style="fill:none;stroke:#d40d07;stroke-linecap:round"/><path d="M.5 0h4.1" transform="matrix(4.93954 -5.22976 5.31915 5.02397 237.64 59.28)" style="fill:none;stroke:#d40d07;stroke-linecap:round"/><path d="M.5 0h4.1" transform="matrix(-5.22976 -4.93954 5.02397 -5.31915 263.68 58.87)" style="fill:none;stroke:#d40d07;stroke-linecap:round"/><path d="M.5 0h4.1" transform="matrix(4.93954 -5.22976 5.31915 5.02397 266.89 59.28)" style="fill:none;stroke:#d40d07;stroke-linecap:round"/><path d="M.5 0h4.1" transform="matrix(-5.22976 -4.93954 5.02397 -5.31915 292.93 58.87)" style="fill:none;stroke:#d40d07;stroke-linecap:round"/><path d="M.5 0h4.1" transform="matrix(4.93954 -5.22976 5.31915 5.02397 90.14 88.54)" style="fill:none;stroke:#d40d07;stroke-linecap:round"/><path d="M.5 0h4.1" transform="matrix(-5.22976 -4.93954 5.02397 -5.31915 116.18 88.12)" style="fill:none;stroke:#d40d07;stroke-linecap:round"/><path d="M.5 0h4.1" transform="matrix(4.93954 -5.22976 5.31915 5.02397 296.14 59.28)" style="fill:none;stroke:#d40d07;stroke-linecap:round"/><path d="M.5 0h4.1" transform="matrix(-5.22976 -4.93954 5.02397 -5.31915 322.18 58.87)" style="fill:none;stroke:#d40d07;stroke-linecap:round"/><path d="M.5 0h4.1" transform="matrix(4.93954 -5.22976 5.31915 5.02397 119.4 88.54)" style="fill:none;stroke:#d40d07;stroke-linecap:round"/><path d="M.5 0h4.1" transform="matrix(-5.22976 -4.93954 5.02397 -5.31915 145.44 88.12)" style="fill:none;stroke:#d40d07;stroke-linecap:round"/><path d="M.5 0h4.1" transform="matrix(4.93954 -5.22976 5.31915 5.02397 149.3 88.54)" style="fill:none;stroke:#d40d07;stroke-linecap:round"/><path d="M.5 0h4.1" transform="matrix(-5.22976 -4.93954 5.02397 -5.31915 175.34 88.12)" style="fill:none;stroke:#d40d07;stroke-linecap:round"/><path d="M.5 0h4.1" transform="matrix(4.93954 -5.22976 5.31915 5.02397 178.66 88.54)" style="fill:none;stroke:#d40d07;stroke-linecap:round"/><path d="M.5 0h4.1" transform="matrix(-5.22976 -4.93954 5.02397 -5.31915 204.7 88.12)" style="fill:none;stroke:#d40d07;stroke-linecap:round"/><path d="M.5 0h4.1" transform="matrix(4.93954 -5.22976 5.31915 5.02397 61.27 88.54)" style="fill:none;stroke:#d40d07;stroke-linecap:round"/><path d="M.5 0h4.1" transform="matrix(-5.22976 -4.93954 5.02397 -5.31915 87.3 88.12)" style="fill:none;stroke:#d40d07;stroke-linecap:round"/><path d="M.5 0h4.1" transform="matrix(4.93954 -5.22976 5.31915 5.02397 296.14 88.54)" style="fill:none;stroke:#d40d07;stroke-linecap:round"/><path d="M.5 0h4.1" transform="matrix(-5.22976 -4.93954 5.02397 -5.31915 322.18 88.12)" style="fill:none;stroke:#d40d07;stroke-linecap:round"/><path d="M.5 0h4.1" transform="matrix(4.93954 -5.22976 5.31915 5.02397 325.4 88.54)" style="fill:none;stroke:#d40d07;stroke-linecap:round"/><path d="M.5 0h4.1" transform="matrix(-5.22976 -4.93954 5.02397 -5.31915 351.43 88.12)" style="fill:none;stroke:#d40d07;stroke-linecap:round"/><path d="M.5 0h4.1" transform="matrix(4.93954 -5.22976 5.31915 5.02397 296.14 117.13)" style="fill:none;stroke:#d40d07;stroke-linecap:round"/><path d="M.5 0h4.1" transform="matrix(-5.22976 -4.93954 5.02397 -5.31915 322.18 116.71)" style="fill:none;stroke:#d40d07;stroke-linecap:round"/><path d="M.5 0h4.1" transform="matrix(4.93954 -5.22976 5.31915 5.02397 325.4 117.13)" style="fill:none;stroke:#d40d07;stroke-linecap:round"/><path d="M.5 0h4.1" transform="matrix(-5.22976 -4.93954 5.02397 -5.31915 351.43 116.71)" style="fill:none;stroke:#d40d07;stroke-linecap:round"/><path d="M.5 0h4.1" transform="matrix(4.93954 -5.22976 5.31915 5.02397 237.64 146.38)" style="fill:none;stroke:#d40d07;stroke-linecap:round"/><path d="M.5 0h4.1" transform="matrix(-5.22976 -4.93954 5.02397 -5.31915 263.68 145.97)" style="fill:none;stroke:#d40d07;stroke-linecap:round"/><path d="M.5 0h4.1" transform="matrix(4.93954 -5.22976 5.31915 5.02397 266.89 147.04)" style="fill:none;stroke:#d40d07;stroke-linecap:round"/><path d="M.5 0h4.1" transform="matrix(-5.22976 -4.93954 5.02397 -5.31915 292.93 146.62)" style="fill:none;stroke:#d40d07;stroke-linecap:round"/><path d="M.5 0h4.1" transform="matrix(4.93954 -5.22976 5.31915 5.02397 296.14 146.38)" style="fill:none;stroke:#d40d07;stroke-linecap:round"/><path d="M.5 0h4.1" transform="matrix(-5.22976 -4.93954 5.02397 -5.31915 322.18 145.97)" style="fill:none;stroke:#d40d07;stroke-linecap:round"/><path d="M.5 0h4.1" transform="matrix(4.93954 -5.22976 5.31915 5.02397 325.4 146.38)" style="fill:none;stroke:#d40d07;stroke-linecap:round"/><path d="M.5 0h4.1" transform="matrix(-5.22976 -4.93954 5.02397 -5.31915 351.43 145.97)" style="fill:none;stroke:#d40d07;stroke-linecap:round"/><path d="M.5 0h4.1" transform="matrix(4.93954 -5.22976 5.31915 5.02397 90.14 203.57)" style="fill:none;stroke:#d40d07;stroke-linecap:round"/><path d="M.5 0h4.1" transform="matrix(-5.22976 -4.93954 5.02397 -5.31915 116.18 203.16)" style="fill:none;stroke:#d40d07;stroke-linecap:round"/><path d="M.5 0h4.1" transform="matrix(4.93954 -5.22976 5.31915 5.02397 149.3 117.13)" style="fill:none;stroke:#d40d07;stroke-linecap:round"/><path d="M.5 0h4.1" transform="matrix(-5.22976 -4.93954 5.02397 -5.31915 175.34 116.71)" style="fill:none;stroke:#d40d07;stroke-linecap:round"/><path d="M.5 0h4.1" transform="matrix(4.93954 -5.22976 5.31915 5.02397 119.4 117.13)" style="fill:none;stroke:#d40d07;stroke-linecap:round"/><path d="M.5 0h4.1" transform="matrix(-5.22976 -4.93954 5.02397 -5.31915 145.44 116.71)" style="fill:none;stroke:#d40d07;stroke-linecap:round"/><path d="M.5 0h4.1" transform="matrix(4.93954 -5.22976 5.31915 5.02397 90.14 117.13)" style="fill:none;stroke:#d40d07;stroke-linecap:round"/><path d="M.5 0h4.1" transform="matrix(-5.22976 -4.93954 5.02397 -5.31915 116.18 116.71)" style="fill:none;stroke:#d40d07;stroke-linecap:round"/><path d="M.5 0h4.1" transform="matrix(4.93954 -5.22976 5.31915 5.02397 61.27 117.13)" style="fill:none;stroke:#d40d07;stroke-linecap:round"/><path d="M.5 0h4.1" transform="matrix(-5.22976 -4.93954 5.02397 -5.31915 87.3 116.71)" style="fill:none;stroke:#d40d07;stroke-linecap:round"/><path d="M.5 0h4.1" transform="matrix(4.93954 -5.22976 5.31915 5.02397 149.3 146.38)" style="fill:none;stroke:#d40d07;stroke-linecap:round"/><path d="M.5 0h4.1" transform="matrix(-5.22976 -4.93954 5.02397 -5.31915 175.34 145.97)" style="fill:none;stroke:#d40d07;stroke-linecap:round"/><path d="M.5 0h4.1" transform="matrix(4.93954 -5.22976 5.31915 5.02397 119.4 146.38)" style="fill:none;stroke:#d40d07;stroke-linecap:round"/><path d="M.5 0h4.1" transform="matrix(-5.22976 -4.93954 5.02397 -5.31915 145.44 145.97)" style="fill:none;stroke:#d40d07;stroke-linecap:round"/><path d="M.5 0h4.1" transform="matrix(4.93954 -5.22976 5.31915 5.02397 90.14 146.38)" style="fill:none;stroke:#d40d07;stroke-linecap:round"/><path d="M.5 0h4.1" transform="matrix(-5.22976 -4.93954 5.02397 -5.31915 116.18 145.97)" style="fill:none;stroke:#d40d07;stroke-linecap:round"/><path d="M.5 0h4.1" transform="matrix(4.93954 -5.22976 5.31915 5.02397 61.27 146.38)" style="fill:none;stroke:#d40d07;stroke-linecap:round"/><path d="M.5 0h4.1" transform="matrix(-5.22976 -4.93954 5.02397 -5.31915 87.3 145.97)" style="fill:none;stroke:#d40d07;stroke-linecap:round"/><path d="M.5 0h4.1" transform="matrix(4.93954 -5.22976 5.31915 5.02397 149.3 174.98)" style="fill:none;stroke:#d40d07;stroke-linecap:round"/><path d="M.5 0h4.1" transform="matrix(-5.22976 -4.93954 5.02397 -5.31915 175.34 174.56)" style="fill:none;stroke:#d40d07;stroke-linecap:round"/><path d="M.5 0h4.1" transform="matrix(4.93954 -5.22976 5.31915 5.02397 119.4 174.98)" style="fill:none;stroke:#d40d07;stroke-linecap:round"/><path d="M.5 0h4.1" transform="matrix(-5.22976 -4.93954 5.02397 -5.31915 145.44 174.56)" style="fill:none;stroke:#d40d07;stroke-linecap:round"/><path d="M.5 0h4.1" transform="matrix(4.93954 -5.22976 5.31915 5.02397 90.14 174.98)" style="fill:none;stroke:#d40d07;stroke-linecap:round"/><path d="M.5 0h4.1" transform="matrix(-5.22976 -4.93954 5.02397 -5.31915 116.18 174.56)" style="fill:none;stroke:#d40d07;stroke-linecap:round"/><path d="M.5 0h4.1" transform="matrix(4.93954 -5.22976 5.31915 5.02397 61.27 174.98)" style="fill:none;stroke:#d40d07;stroke-linecap:round"/><path d="M.5 0h4.1" transform="matrix(-5.22976 -4.93954 5.02397 -5.31915 87.3 174.56)" style="fill:none;stroke:#d40d07;stroke-linecap:round"/><path d="M.5 0h4.1" transform="matrix(4.93954 -5.22976 5.31915 5.02397 237.64 174.98)" style="fill:none;stroke:#d40d07;stroke-linecap:round"/><path d="M.5 0h4.1" transform="matrix(-5.22976 -4.93954 5.02397 -5.31915 263.68 174.56)" style="fill:none;stroke:#d40d07;stroke-linecap:round"/><path d="M.5 0h4.1" transform="matrix(4.93954 -5.22976 5.31915 5.02397 266.89 174.98)" style="fill:none;stroke:#d40d07;stroke-linecap:round"/><path d="M.5 0h4.1" transform="matrix(-5.22976 -4.93954 5.02397 -5.31915 292.93 174.56)" style="fill:none;stroke:#d40d07;stroke-linecap:round"/><path d="M.5 0h4.1" transform="matrix(4.93954 -5.22976 5.31915 5.02397 296.14 174.98)" style="fill:none;stroke:#d40d07;stroke-linecap:round"/><path d="M.5 0h4.1" transform="matrix(-5.22976 -4.93954 5.02397 -5.31915 322.18 174.56)" style="fill:none;stroke:#d40d07;stroke-linecap:round"/><path d="M.5 0h4.1" transform="matrix(4.93954 -5.22976 5.31915 5.02397 325.4 174.98)" style="fill:none;stroke:#d40d07;stroke-linecap:round"/><path d="M.5 0h4.1" transform="matrix(-5.22976 -4.93954 5.02397 -5.31915 351.43 174.56)" style="fill:none;stroke:#d40d07;stroke-linecap:round"/><path d="M.5 0h4.1" transform="matrix(4.93954 -5.22976 5.31915 5.02397 90.14 232.62)" style="fill:none;stroke:#d40d07;stroke-linecap:round"/><path d="M.5 0h4.1" transform="matrix(-5.22976 -4.93954 5.02397 -5.31915 116.18 232.2)" style="fill:none;stroke:#d40d07;stroke-linecap:round"/><path d="M.5 0h4.1" transform="matrix(4.93954 -5.22976 5.31915 5.02397 61.27 203.57)" style="fill:none;stroke:#d40d07;stroke-linecap:round"/><path d="M.5 0h4.1" transform="matrix(-5.22976 -4.93954 5.02397 -5.31915 87.3 203.16)" style="fill:none;stroke:#d40d07;stroke-linecap:round"/><path d="M.5 0h4.1" transform="matrix(4.93954 -5.22976 5.31915 5.02397 61.27 232.62)" style="fill:none;stroke:#d40d07;stroke-linecap:round"/><path d="M.5 0h4.1" transform="matrix(-5.22976 -4.93954 5.02397 -5.31915 87.3 232.2)" style="fill:none;stroke:#d40d07;stroke-linecap:round"/><path d="M.5 0h4.1" transform="matrix(4.93954 -5.22976 5.31915 5.02397 296.14 203.57)" style="fill:none;stroke:#d40d07;stroke-linecap:round"/><path d="M.5 0h4.1" transform="matrix(-5.22976 -4.93954 5.02397 -5.31915 322.18 203.16)" style="fill:none;stroke:#d40d07;stroke-linecap:round"/><path d="M.5 0h4.1" transform="matrix(4.93954 -5.22976 5.31915 5.02397 296.14 232.62)" style="fill:none;stroke:#d40d07;stroke-linecap:round"/><path d="M.5 0h4.1" transform="matrix(-5.22976 -4.93954 5.02397 -5.31915 322.18 232.2)" style="fill:none;stroke:#d40d07;stroke-linecap:round"/><path d="M.5 0h4.1" transform="matrix(4.93954 -5.22976 5.31915 5.02397 325.4 203.57)" style="fill:none;stroke:#d40d07;stroke-linecap:round"/><path d="M.5 0h4.1" transform="matrix(-5.22976 -4.93954 5.02397 -5.31915 351.43 203.16)" style="fill:none;stroke:#d40d07;stroke-linecap:round"/><path d="M.5 0h4.1" transform="matrix(4.93954 -5.22976 5.31915 5.02397 325.4 232.62)" style="fill:none;stroke:#d40d07;stroke-linecap:round"/><path d="M.5 0h4.1" transform="matrix(-5.22976 -4.93954 5.02397 -5.31915 351.43 232.2)" style="fill:none;stroke:#d40d07;stroke-linecap:round"/><path d="M.5 0h4.1" transform="matrix(4.93954 -5.22976 5.31915 5.02397 90.14 261.57)" style="fill:none;stroke:#d40d07;stroke-linecap:round"/><path d="M.5 0h4.1" transform="matrix(-5.22976 -4.93954 5.02397 -5.31915 116.18 261.16)" style="fill:none;stroke:#d40d07;stroke-linecap:round"/><path d="M.5 0h4.1" transform="matrix(4.93954 -5.22976 5.31915 5.02397 61.27 261.57)" style="fill:none;stroke:#d40d07;stroke-linecap:round"/><path d="M.5 0h4.1" transform="matrix(-5.22976 -4.93954 5.02397 -5.31915 87.3 261.16)" style="fill:none;stroke:#d40d07;stroke-linecap:round"/><path d="M.5 0h4.1" transform="matrix(4.93954 -5.22976 5.31915 5.02397 119.4 261.57)" style="fill:none;stroke:#d40d07;stroke-linecap:round"/><path d="M.5 0h4.1" transform="matrix(-5.22976 -4.93954 5.02397 -5.31915 145.44 261.16)" style="fill:none;stroke:#d40d07;stroke-linecap:round"/><path d="M.5 0h4.1" transform="matrix(4.93954 -5.22976 5.31915 5.02397 149.3 261.57)" style="fill:none;stroke:#d40d07;stroke-linecap:round"/><path d="M.5 0h4.1" transform="matrix(-5.22976 -4.93954 5.02397 -5.31915 175.34 261.16)" style="fill:none;stroke:#d40d07;stroke-linecap:round"/><path d="M.5 0h4.1" transform="matrix(4.93954 -5.22976 5.31915 5.02397 237.64 261.57)" style="fill:none;stroke:#d40d07;stroke-linecap:round"/><path d="M.5 0h4.1" transform="matrix(-5.22976 -4.93954 5.02397 -5.31915 263.68 261.16)" style="fill:none;stroke:#d40d07;stroke-linecap:round"/><path d="M.5 0h4.1" transform="matrix(4.93954 -5.22976 5.31915 5.02397 266.89 261.57)" style="fill:none;stroke:#d40d07;stroke-linecap:round"/><path d="M.5 0h4.1" transform="matrix(-5.22976 -4.93954 5.02397 -5.31915 292.93 261.16)" style="fill:none;stroke:#d40d07;stroke-linecap:round"/><path d="M.5 0h4.1" transform="matrix(4.93954 -5.22976 5.31915 5.02397 296.14 261.57)" style="fill:none;stroke:#d40d07;stroke-linecap:round"/><path d="M.5 0h4.1" transform="matrix(-5.22976 -4.93954 5.02397 -5.31915 322.18 261.16)" style="fill:none;stroke:#d40d07;stroke-linecap:round"/><path d="M.5 0h4.1" transform="matrix(4.93954 -5.22976 5.31915 5.02397 325.4 261.57)" style="fill:none;stroke:#d40d07;stroke-linecap:round"/><path d="M.5 0h4.1" transform="matrix(-5.22976 -4.93954 5.02397 -5.31915 351.43 261.16)" style="fill:none;stroke:#d40d07;stroke-linecap:round"/><path d="M.5 0h4.1" transform="matrix(4.93954 -5.22976 5.31915 5.02397 61.27 290.17)" style="fill:none;stroke:#d40d07;stroke-linecap:round"/><path d="M.5 0h4.1" transform="matrix(-5.22976 -4.93954 5.02397 -5.31915 87.3 289.75)" style="fill:none;stroke:#d40d07;stroke-linecap:round"/><path d="M.5 0h4.1" transform="matrix(4.93954 -5.22976 5.31915 5.02397 90.14 290.17)" style="fill:none;stroke:#d40d07;stroke-linecap:round"/><path d="M.5 0h4.1" transform="matrix(-5.22976 -4.93954 5.02397 -5.31915 116.18 289.75)" style="fill:none;stroke:#d40d07;stroke-linecap:round"/><path d="M.5 0h4.1" transform="matrix(4.93954 -5.22976 5.31915 5.02397 119.4 290.17)" style="fill:none;stroke:#d40d07;stroke-linecap:round"/><path d="M.5 0h4.1" transform="matrix(-5.22976 -4.93954 5.02397 -5.31915 145.44 289.75)" style="fill:none;stroke:#d40d07;stroke-linecap:round"/><path d="M.5 0h4.1" transform="matrix(4.93954 -5.22976 5.31915 5.02397 149.3 290.17)" style="fill:none;stroke:#d40d07;stroke-linecap:round"/><path d="M.5 0h4.1" transform="matrix(-5.22976 -4.93954 5.02397 -5.31915 175.34 289.75)" style="fill:none;stroke:#d40d07;stroke-linecap:round"/><path d="M.5 0h4.1" transform="matrix(4.93954 -5.22976 5.31915 5.02397 237.64 290.17)" style="fill:none;stroke:#d40d07;stroke-linecap:round"/><path d="M.5 0h4.1" transform="matrix(-5.22976 -4.93954 5.02397 -5.31915 263.68 289.75)" style="fill:none;stroke:#d40d07;stroke-linecap:round"/><path d="M.5 0h4.1" transform="matrix(4.93954 -5.22976 5.31915 5.02397 266.89 290.17)" style="fill:none;stroke:#d40d07;stroke-linecap:round"/><path d="M.5 0h4.1" transform="matrix(-5.22976 -4.93954 5.02397 -5.31915 292.93 289.75)" style="fill:none;stroke:#d40d07;stroke-linecap:round"/><path d="M.5 0h4.1" transform="matrix(4.93954 -5.22976 5.31915 5.02397 296.14 290.17)" style="fill:none;stroke:#d40d07;stroke-linecap:round"/><path d="M.5 0h4.1" transform="matrix(-5.22976 -4.93954 5.02397 -5.31915 322.18 289.75)" style="fill:none;stroke:#d40d07;stroke-linecap:round"/><path d="M.5 0h4.1" transform="matrix(4.93954 -5.22976 5.31915 5.02397 325.4 290.17)" style="fill:none;stroke:#d40d07;stroke-linecap:round"/><path d="M.5 0h4.1" transform="matrix(-5.22976 -4.93954 5.02397 -5.31915 351.43 289.75)" style="fill:none;stroke:#d40d07;stroke-linecap:round"/><path d="M.5 0h4.1" transform="matrix(4.93954 -5.22976 5.31915 5.02397 62.2 318.77)" style="fill:none;stroke:#d40d07;stroke-linecap:round"/><path d="M.5 0h4.1" transform="matrix(-5.22976 -4.93954 5.02397 -5.31915 88.25 318.35)" style="fill:none;stroke:#d40d07;stroke-linecap:round"/><path d="M.5 0h4.1" transform="matrix(4.93954 -5.22976 5.31915 5.02397 91.08 318.77)" style="fill:none;stroke:#d40d07;stroke-linecap:round"/><path d="M.5 0h4.1" transform="matrix(-5.22976 -4.93954 5.02397 -5.31915 117.12 318.35)" style="fill:none;stroke:#d40d07;stroke-linecap:round"/><path d="M.5 0h4.1" transform="matrix(4.93954 -5.22976 5.31915 5.02397 120.33 318.77)" style="fill:none;stroke:#d40d07;stroke-linecap:round"/><path d="M.5 0h4.1" transform="matrix(-5.22976 -4.93954 5.02397 -5.31915 146.37 318.35)" style="fill:none;stroke:#d40d07;stroke-linecap:round"/><path d="M.5 0h4.1" transform="matrix(4.93954 -5.22976 5.31915 5.02397 150.24 318.77)" style="fill:none;stroke:#d40d07;stroke-linecap:round"/><path d="M.5 0h4.1" transform="matrix(-5.22976 -4.93954 5.02397 -5.31915 176.28 318.35)" style="fill:none;stroke:#d40d07;stroke-linecap:round"/><path d="M.5 0h4.1" transform="matrix(4.93954 -5.22976 5.31915 5.02397 238.58 318.77)" style="fill:none;stroke:#d40d07;stroke-linecap:round"/><path d="M.5 0h4.1" transform="matrix(-5.22976 -4.93954 5.02397 -5.31915 264.62 318.35)" style="fill:none;stroke:#d40d07;stroke-linecap:round"/><path d="M.5 0h4.1" transform="matrix(4.93954 -5.22976 5.31915 5.02397 267.83 318.77)" style="fill:none;stroke:#d40d07;stroke-linecap:round"/><path d="M.5 0h4.1" transform="matrix(-5.22976 -4.93954 5.02397 -5.31915 293.87 318.35)" style="fill:none;stroke:#d40d07;stroke-linecap:round"/><path d="M.5 0h4.1" transform="matrix(4.93954 -5.22976 5.31915 5.02397 297.08 318.77)" style="fill:none;stroke:#d40d07;stroke-linecap:round"/><path d="M.5 0h4.1" transform="matrix(-5.22976 -4.93954 5.02397 -5.31915 323.12 318.35)" style="fill:none;stroke:#d40d07;stroke-linecap:round"/><path d="M.5 0h4.1" transform="matrix(4.93954 -5.22976 5.31915 5.02397 326.33 318.77)" style="fill:none;stroke:#d40d07;stroke-linecap:round"/><path d="M.5 0h4.1" transform="matrix(-5.22976 -4.93954 5.02397 -5.31915 352.37 318.35)" style="fill:none;stroke:#d40d07;stroke-linecap:round"/><path d="M.5 0h4.1" transform="matrix(4.93954 -5.22976 5.31915 5.02397 62.2 347.36)" style="fill:none;stroke:#d40d07;stroke-linecap:round"/><path d="M.5 0h4.1" transform="matrix(-5.22976 -4.93954 5.02397 -5.31915 88.25 346.94)" style="fill:none;stroke:#d40d07;stroke-linecap:round"/><path d="M.5 0h4.1" transform="matrix(4.93954 -5.22976 5.31915 5.02397 91.08 347.36)" style="fill:none;stroke:#d40d07;stroke-linecap:round"/><path d="M.5 0h4.1" transform="matrix(-5.22976 -4.93954 5.02397 -5.31915 117.12 346.94)" style="fill:none;stroke:#d40d07;stroke-linecap:round"/><path d="M.5 0h4.1" transform="matrix(4.93954 -5.22976 5.31915 5.02397 120.33 347.36)" style="fill:none;stroke:#d40d07;stroke-linecap:round"/><path d="M.5 0h4.1" transform="matrix(-5.22976 -4.93954 5.02397 -5.31915 146.37 346.94)" style="fill:none;stroke:#d40d07;stroke-linecap:round"/><path d="M.5 0h4.1" transform="matrix(4.93954 -5.22976 5.31915 5.02397 150.24 347.36)" style="fill:none;stroke:#d40d07;stroke-linecap:round"/><path d="M.5 0h4.1" transform="matrix(-5.22976 -4.93954 5.02397 -5.31915 176.28 346.94)" style="fill:none;stroke:#d40d07;stroke-linecap:round"/><path d="M.5 0h4.1" transform="matrix(4.93954 -5.22976 5.31915 5.02397 238.58 347.36)" style="fill:none;stroke:#d40d07;stroke-linecap:round"/><path d="M.5 0h4.1" transform="matrix(-5.22976 -4.93954 5.02397 -5.31915 264.62 346.94)" style="fill:none;stroke:#d40d07;stroke-linecap:round"/><path d="M.5 0h4.1" transform="matrix(4.93954 -5.22976 5.31915 5.02397 267.83 347.36)" style="fill:none;stroke:#d40d07;stroke-linecap:round"/><path d="M.5 0h4.1" transform="matrix(-5.22976 -4.93954 5.02397 -5.31915 293.87 346.94)" style="fill:none;stroke:#d40d07;stroke-linecap:round"/><path d="M.5 0h4.1" transform="matrix(4.93954 -5.22976 5.31915 5.02397 297.08 347.36)" style="fill:none;stroke:#d40d07;stroke-linecap:round"/><path d="M.5 0h4.1" transform="matrix(-5.22976 -4.93954 5.02397 -5.31915 323.12 346.94)" style="fill:none;stroke:#d40d07;stroke-linecap:round"/><path d="M.5 0h4.1" transform="matrix(4.93954 -5.22976 5.31915 5.02397 326.33 347.36)" style="fill:none;stroke:#d40d07;stroke-linecap:round"/><path d="M.5 0h4.1" transform="matrix(-5.22976 -4.93954 5.02397 -5.31915 352.37 346.94)" style="fill:none;stroke:#d40d07;stroke-linecap:round"/><path d="M.5 0h4.1" transform="matrix(4.93954 -5.22976 5.31915 5.02397 62.2 375.96)" style="fill:none;stroke:#d40d07;stroke-linecap:round"/><path d="M.5 0h4.1" transform="matrix(-5.22976 -4.93954 5.02397 -5.31915 88.25 375.54)" style="fill:none;stroke:#d40d07;stroke-linecap:round"/><path d="M.5 0h4.1" transform="matrix(4.93954 -5.22976 5.31915 5.02397 91.08 375.96)" style="fill:none;stroke:#d40d07;stroke-linecap:round"/><path d="M.5 0h4.1" transform="matrix(-5.22976 -4.93954 5.02397 -5.31915 117.12 375.54)" style="fill:none;stroke:#d40d07;stroke-linecap:round"/><path d="M.5 0h4.1" transform="matrix(4.93954 -5.22976 5.31915 5.02397 120.33 375.96)" style="fill:none;stroke:#d40d07;stroke-linecap:round"/><path d="M.5 0h4.1" transform="matrix(-5.22976 -4.93954 5.02397 -5.31915 146.37 375.54)" style="fill:none;stroke:#d40d07;stroke-linecap:round"/><path d="M.5 0h4.1" transform="matrix(4.93954 -5.22976 5.31915 5.02397 150.24 375.96)" style="fill:none;stroke:#d40d07;stroke-linecap:round"/><path d="M.5 0h4.1" transform="matrix(-5.22976 -4.93954 5.02397 -5.31915 176.28 375.54)" style="fill:none;stroke:#d40d07;stroke-linecap:round"/><path d="M.5 0h4.1" transform="matrix(4.93954 -5.22976 5.31915 5.02397 238.58 375.96)" style="fill:none;stroke:#d40d07;stroke-linecap:round"/><path d="M.5 0h4.1" transform="matrix(-5.22976 -4.93954 5.02397 -5.31915 264.62 375.54)" style="fill:none;stroke:#d40d07;stroke-linecap:round"/><path d="M.5 0h4.1" transform="matrix(4.93954 -5.22976 5.31915 5.02397 267.83 375.96)" style="fill:none;stroke:#d40d07;stroke-linecap:round"/><path d="M.5 0h4.1" transform="matrix(-5.22976 -4.93954 5.02397 -5.31915 293.87 375.54)" style="fill:none;stroke:#d40d07;stroke-linecap:round"/><path d="M.5 0h4.1" transform="matrix(4.93954 -5.22976 5.31915 5.02397 297.08 375.96)" style="fill:none;stroke:#d40d07;stroke-linecap:round"/><path d="M.5 0h4.1" transform="matrix(-5.22976 -4.93954 5.02397 -5.31915 323.12 375.54)" style="fill:none;stroke:#d40d07;stroke-linecap:round"/><path d="M.5 0h4.1" transform="matrix(4.93954 -5.22976 5.31915 5.02397 326.33 375.96)" style="fill:none;stroke:#d40d07;stroke-linecap:round"/><path d="M.5 0h4.1" transform="matrix(-5.22976 -4.93954 5.02397 -5.31915 352.37 375.54)" style="fill:none;stroke:#d40d07;stroke-linecap:round"/><path d="M.5 0h4.1" transform="matrix(4.93954 -5.22976 5.31915 5.02397 62.2 404.55)" style="fill:none;stroke:#d40d07;stroke-linecap:round"/><path d="M.5 0h4.1" transform="matrix(-5.22976 -4.93954 5.02397 -5.31915 88.25 404.14)" style="fill:none;stroke:#d40d07;stroke-linecap:round"/><path d="M.5 0h4.1" transform="matrix(4.93954 -5.22976 5.31915 5.02397 91.08 404.55)" style="fill:none;stroke:#d40d07;stroke-linecap:round"/><path d="M.5 0h4.1" transform="matrix(-5.22976 -4.93954 5.02397 -5.31915 117.12 404.14)" style="fill:none;stroke:#d40d07;stroke-linecap:round"/><path d="M.5 0h4.1" transform="matrix(4.93954 -5.22976 5.31915 5.02397 120.33 404.55)" style="fill:none;stroke:#d40d07;stroke-linecap:round"/><path d="M.5 0h4.1" transform="matrix(-5.22976 -4.93954 5.02397 -5.31915 146.37 404.14)" style="fill:none;stroke:#d40d07;stroke-linecap:round"/><path d="M.5 0h4.1" transform="matrix(4.93954 -5.22976 5.31915 5.02397 150.24 404.55)" style="fill:none;stroke:#d40d07;stroke-linecap:round"/><path d="M.5 0h4.1" transform="matrix(-5.22976 -4.93954 5.02397 -5.31915 176.28 404.14)" style="fill:none;stroke:#d40d07;stroke-linecap:round"/><path d="M.5 0h4.1" transform="matrix(4.93954 -5.22976 5.31915 5.02397 238.58 404.55)" style="fill:none;stroke:#d40d07;stroke-linecap:round"/><path d="M.5 0h4.1" transform="matrix(-5.22976 -4.93954 5.02397 -5.31915 264.62 404.14)" style="fill:none;stroke:#d40d07;stroke-linecap:round"/><path d="M.5 0h4.1" transform="matrix(4.93954 -5.22976 5.31915 5.02397 267.83 404.55)" style="fill:none;stroke:#d40d07;stroke-linecap:round"/><path d="M.5 0h4.1" transform="matrix(-5.22976 -4.93954 5.02397 -5.31915 293.87 404.14)" style="fill:none;stroke:#d40d07;stroke-linecap:round"/><path d="M.5 0h4.1" transform="matrix(4.93954 -5.22976 5.31915 5.02397 297.08 404.55)" style="fill:none;stroke:#d40d07;stroke-linecap:round"/><path d="M.5 0h4.1" transform="matrix(-5.22976 -4.93954 5.02397 -5.31915 323.12 404.14)" style="fill:none;stroke:#d40d07;stroke-linecap:round"/><path d="M.5 0h4.1" transform="matrix(4.93954 -5.22976 5.31915 5.02397 326.33 404.55)" style="fill:none;stroke:#d40d07;stroke-linecap:round"/><path d="M.5 0h4.1" transform="matrix(-5.22976 -4.93954 5.02397 -5.31915 352.37 404.14)" style="fill:none;stroke:#d40d07;stroke-linecap:round"/><path d="M.5 0h4.1" transform="matrix(4.93954 -5.22976 5.31915 5.02397 178.66 404.55)" style="fill:none;stroke:#d40d07;stroke-linecap:round"/><path d="M.5 0h4.1" transform="matrix(-5.22976 -4.93954 5.02397 -5.31915 204.7 404.14)" style="fill:none;stroke:#d40d07;stroke-linecap:round"/><path d="M.5 0h4.1" transform="matrix(4.93954 -5.22976 5.31915 5.02397 208.39 404.55)" style="fill:none;stroke:#d40d07;stroke-linecap:round"/><path d="M.5 0h4.1" transform="matrix(-5.22976 -4.93954 5.02397 -5.31915 234.43 404.14)" style="fill:none;stroke:#d40d07;stroke-linecap:round"/><path d="M.5 0h4.1" transform="matrix(4.93954 -5.22976 5.31915 5.02397 61.27 59.28)" style="fill:none;stroke:#d40d07;stroke-linecap:round"/><path d="M.5 0h4.1" transform="matrix(-5.22976 -4.93954 5.02397 -5.31915 87.3 58.87)" style="fill:none;stroke:#d40d07;stroke-linecap:round"/><path d="M.5 0h4.1" transform="matrix(4.93954 -5.22976 5.31915 5.02397 325.4 59.28)" style="fill:none;stroke:#d40d07;stroke-linecap:round"/><path d="M.5 0h4.1" transform="matrix(-5.22976 -4.93954 5.02397 -5.31915 351.43 58.87)" style="fill:none;stroke:#d40d07;stroke-linecap:round"/><path d="M.5 0h4.1" transform="matrix(4.93954 -5.22976 5.31915 5.02397 32.3 59.28)" style="fill:none;stroke:#d40d07;stroke-linecap:round"/><path d="M.5 0h4.1" transform="matrix(-5.22976 -4.93954 5.02397 -5.31915 58.34 58.87)" style="fill:none;stroke:#d40d07;stroke-linecap:round"/><path d="M.5 0h4.1" transform="matrix(4.93954 -5.22976 5.31915 5.02397 3.42 59.28)" style="fill:none;stroke:#d40d07;stroke-linecap:round"/><path d="M.5 0h4.1" transform="matrix(-5.22976 -4.93954 5.02397 -5.31915 29.46 58.87)" style="fill:none;stroke:#d40d07;stroke-linecap:round"/><path d="M.5 0h4.1" transform="matrix(4.93954 -5.22976 5.31915 5.02397 383.52 59.28)" style="fill:none;stroke:#d40d07;stroke-linecap:round"/><path d="M.5 0h4.1" transform="matrix(-5.22976 -4.93954 5.02397 -5.31915 409.56 58.87)" style="fill:none;stroke:#d40d07;stroke-linecap:round"/><path d="M.5 0h4.1" transform="matrix(4.93954 -5.22976 5.31915 5.02397 354.65 59.28)" style="fill:none;stroke:#d40d07;stroke-linecap:round"/><path d="M.5 0h4.1" transform="matrix(-5.22976 -4.93954 5.02397 -5.31915 380.69 58.87)" style="fill:none;stroke:#d40d07;stroke-linecap:round"/><path d="M.5 0h4.1" transform="matrix(4.93954 -5.22976 5.31915 5.02397 32.3 88.54)" style="fill:none;stroke:#d40d07;stroke-linecap:round"/><path d="M.5 0h4.1" transform="matrix(-5.22976 -4.93954 5.02397 -5.31915 58.34 88.12)" style="fill:none;stroke:#d40d07;stroke-linecap:round"/><path d="M.5 0h4.1" transform="matrix(4.93954 -5.22976 5.31915 5.02397 3.42 88.54)" style="fill:none;stroke:#d40d07;stroke-linecap:round"/><path d="M.5 0h4.1" transform="matrix(-5.22976 -4.93954 5.02397 -5.31915 29.46 88.12)" style="fill:none;stroke:#d40d07;stroke-linecap:round"/><path d="M.5 0h4.1" transform="matrix(4.93954 -5.22976 5.31915 5.02397 383.52 88.54)" style="fill:none;stroke:#d40d07;stroke-linecap:round"/><path d="M.5 0h4.1" transform="matrix(-5.22976 -4.93954 5.02397 -5.31915 409.56 88.12)" style="fill:none;stroke:#d40d07;stroke-linecap:round"/><path d="M.5 0h4.1" transform="matrix(4.93954 -5.22976 5.31915 5.02397 354.65 88.54)" style="fill:none;stroke:#d40d07;stroke-linecap:round"/><path d="M.5 0h4.1" transform="matrix(-5.22976 -4.93954 5.02397 -5.31915 380.69 88.12)" style="fill:none;stroke:#d40d07;stroke-linecap:round"/><path d="M.5 0h4.1" transform="matrix(4.93954 -5.22976 5.31915 5.02397 32.3 117.13)" style="fill:none;stroke:#d40d07;stroke-linecap:round"/><path d="M.5 0h4.1" transform="matrix(-5.22976 -4.93954 5.02397 -5.31915 58.34 116.71)" style="fill:none;stroke:#d40d07;stroke-linecap:round"/><path d="M.5 0h4.1" transform="matrix(4.93954 -5.22976 5.31915 5.02397 3.42 117.13)" style="fill:none;stroke:#d40d07;stroke-linecap:round"/><path d="M.5 0h4.1" transform="matrix(-5.22976 -4.93954 5.02397 -5.31915 29.46 116.71)" style="fill:none;stroke:#d40d07;stroke-linecap:round"/><path d="M.5 0h4.1" transform="matrix(4.93954 -5.22976 5.31915 5.02397 383.52 117.13)" style="fill:none;stroke:#d40d07;stroke-linecap:round"/><path d="M.5 0h4.1" transform="matrix(-5.22976 -4.93954 5.02397 -5.31915 409.56 116.71)" style="fill:none;stroke:#d40d07;stroke-linecap:round"/><path d="M.5 0h4.1" transform="matrix(4.93954 -5.22976 5.31915 5.02397 354.65 117.13)" style="fill:none;stroke:#d40d07;stroke-linecap:round"/><path d="M.5 0h4.1" transform="matrix(-5.22976 -4.93954 5.02397 -5.31915 380.69 116.71)" style="fill:none;stroke:#d40d07;stroke-linecap:round"/><path d="M.5 0h4.1" transform="matrix(4.93954 -5.22976 5.31915 5.02397 32.3 146.38)" style="fill:none;stroke:#d40d07;stroke-linecap:round"/><path d="M.5 0h4.1" transform="matrix(-5.22976 -4.93954 5.02397 -5.31915 58.34 145.97)" style="fill:none;stroke:#d40d07;stroke-linecap:round"/><path d="M.5 0h4.1" transform="matrix(4.93954 -5.22976 5.31915 5.02397 3.42 146.38)" style="fill:none;stroke:#d40d07;stroke-linecap:round"/><path d="M.5 0h4.1" transform="matrix(-5.22976 -4.93954 5.02397 -5.31915 29.46 145.97)" style="fill:none;stroke:#d40d07;stroke-linecap:round"/><path d="M.5 0h4.1" transform="matrix(4.93954 -5.22976 5.31915 5.02397 383.52 147.04)" style="fill:none;stroke:#d40d07;stroke-linecap:round"/><path d="M.5 0h4.1" transform="matrix(-5.22976 -4.93954 5.02397 -5.31915 409.56 146.62)" style="fill:none;stroke:#d40d07;stroke-linecap:round"/><path d="M.5 0h4.1" transform="matrix(4.93954 -5.22976 5.31915 5.02397 354.65 147.04)" style="fill:none;stroke:#d40d07;stroke-linecap:round"/><path d="M.5 0h4.1" transform="matrix(-5.22976 -4.93954 5.02397 -5.31915 380.69 146.62)" style="fill:none;stroke:#d40d07;stroke-linecap:round"/><path d="M.5 0h4.1" transform="matrix(4.93954 -5.22976 5.31915 5.02397 33.47 174.98)" style="fill:none;stroke:#d40d07;stroke-linecap:round"/><path d="M.5 0h4.1" transform="matrix(-5.22976 -4.93954 5.02397 -5.31915 59.51 174.56)" style="fill:none;stroke:#d40d07;stroke-linecap:round"/><path d="M.5 0h4.1" transform="matrix(4.93954 -5.22976 5.31915 5.02397 4.6 174.98)" style="fill:none;stroke:#d40d07;stroke-linecap:round"/><path d="M.5 0h4.1" transform="matrix(-5.22976 -4.93954 5.02397 -5.31915 30.64 174.56)" style="fill:none;stroke:#d40d07;stroke-linecap:round"/><path d="M.5 0h4.1" transform="matrix(4.93954 -5.22976 5.31915 5.02397 383.52 174.98)" style="fill:none;stroke:#d40d07;stroke-linecap:round"/><path d="M.5 0h4.1" transform="matrix(-5.22976 -4.93954 5.02397 -5.31915 409.56 174.56)" style="fill:none;stroke:#d40d07;stroke-linecap:round"/><path d="M.5 0h4.1" transform="matrix(4.93954 -5.22976 5.31915 5.02397 354.65 174.98)" style="fill:none;stroke:#d40d07;stroke-linecap:round"/><path d="M.5 0h4.1" transform="matrix(-5.22976 -4.93954 5.02397 -5.31915 380.69 174.56)" style="fill:none;stroke:#d40d07;stroke-linecap:round"/><path d="M.5 0h4.1" transform="matrix(4.93954 -5.22976 5.31915 5.02397 32.3 203.57)" style="fill:none;stroke:#d40d07;stroke-linecap:round"/><path d="M.5 0h4.1" transform="matrix(-5.22976 -4.93954 5.02397 -5.31915 58.34 203.16)" style="fill:none;stroke:#d40d07;stroke-linecap:round"/><path d="M.5 0h4.1" transform="matrix(4.93954 -5.22976 5.31915 5.02397 3.42 203.57)" style="fill:none;stroke:#d40d07;stroke-linecap:round"/><path d="M.5 0h4.1" transform="matrix(-5.22976 -4.93954 5.02397 -5.31915 29.46 203.16)" style="fill:none;stroke:#d40d07;stroke-linecap:round"/><path d="M.5 0h4.1" transform="matrix(4.93954 -5.22976 5.31915 5.02397 383.52 203.57)" style="fill:none;stroke:#d40d07;stroke-linecap:round"/><path d="M.5 0h4.1" transform="matrix(-5.22976 -4.93954 5.02397 -5.31915 409.56 203.16)" style="fill:none;stroke:#d40d07;stroke-linecap:round"/><path d="M.5 0h4.1" transform="matrix(4.93954 -5.22976 5.31915 5.02397 354.65 203.57)" style="fill:none;stroke:#d40d07;stroke-linecap:round"/><path d="M.5 0h4.1" transform="matrix(-5.22976 -4.93954 5.02397 -5.31915 380.69 203.16)" style="fill:none;stroke:#d40d07;stroke-linecap:round"/><path d="M.5 0h4.1" transform="matrix(4.93954 -5.22976 5.31915 5.02397 32.3 233.96)" style="fill:none;stroke:#d40d07;stroke-linecap:round"/><path d="M.5 0h4.1" transform="matrix(-5.22976 -4.93954 5.02397 -5.31915 58.34 233.54)" style="fill:none;stroke:#d40d07;stroke-linecap:round"/><path d="M.5 0h4.1" transform="matrix(4.93954 -5.22976 5.31915 5.02397 3.42 233.96)" style="fill:none;stroke:#d40d07;stroke-linecap:round"/><path d="M.5 0h4.1" transform="matrix(-5.22976 -4.93954 5.02397 -5.31915 29.46 233.54)" style="fill:none;stroke:#d40d07;stroke-linecap:round"/><path d="M.5 0h4.1" transform="matrix(4.93954 -5.22976 5.31915 5.02397 32.3 263.21)" style="fill:none;stroke:#d40d07;stroke-linecap:round"/><path d="M.5 0h4.1" transform="matrix(-5.22976 -4.93954 5.02397 -5.31915 58.34 262.8)" style="fill:none;stroke:#d40d07;stroke-linecap:round"/><path d="M.5 0h4.1" transform="matrix(4.93954 -5.22976 5.31915 5.02397 3.42 263.21)" style="fill:none;stroke:#d40d07;stroke-linecap:round"/><path d="M.5 0h4.1" transform="matrix(-5.22976 -4.93954 5.02397 -5.31915 29.46 262.8)" style="fill:none;stroke:#d40d07;stroke-linecap:round"/><path d="M.5 0h4.1" transform="matrix(4.93954 -5.22976 5.31915 5.02397 33.47 291.81)" style="fill:none;stroke:#d40d07;stroke-linecap:round"/><path d="M.5 0h4.1" transform="matrix(-5.22976 -4.93954 5.02397 -5.31915 59.51 291.4)" style="fill:none;stroke:#d40d07;stroke-linecap:round"/><path d="M.5 0h4.1" transform="matrix(4.93954 -5.22976 5.31915 5.02397 4.6 291.81)" style="fill:none;stroke:#d40d07;stroke-linecap:round"/><path d="M.5 0h4.1" transform="matrix(-5.22976 -4.93954 5.02397 -5.31915 30.64 291.4)" style="fill:none;stroke:#d40d07;stroke-linecap:round"/><path d="M.5 0h4.1" transform="matrix(4.93954 -5.22976 5.31915 5.02397 32.3 320.4)" style="fill:none;stroke:#d40d07;stroke-linecap:round"/><path d="M.5 0h4.1" transform="matrix(-5.22976 -4.93954 5.02397 -5.31915 58.34 319.99)" style="fill:none;stroke:#d40d07;stroke-linecap:round"/><path d="M.5 0h4.1" transform="matrix(4.93954 -5.22976 5.31915 5.02397 3.42 320.4)" style="fill:none;stroke:#d40d07;stroke-linecap:round"/><path d="M.5 0h4.1" transform="matrix(-5.22976 -4.93954 5.02397 -5.31915 29.46 319.99)" style="fill:none;stroke:#d40d07;stroke-linecap:round"/><path d="M.5 0h4.1" transform="matrix(4.93954 -5.22976 5.31915 5.02397 383.52 231.34)" style="fill:none;stroke:#d40d07;stroke-linecap:round"/><path d="M.5 0h4.1" transform="matrix(-5.22976 -4.93954 5.02397 -5.31915 409.56 230.92)" style="fill:none;stroke:#d40d07;stroke-linecap:round"/><path d="M.5 0h4.1" transform="matrix(4.93954 -5.22976 5.31915 5.02397 354.65 231.34)" style="fill:none;stroke:#d40d07;stroke-linecap:round"/><path d="M.5 0h4.1" transform="matrix(-5.22976 -4.93954 5.02397 -5.31915 380.69 230.92)" style="fill:none;stroke:#d40d07;stroke-linecap:round"/><path d="M.5 0h4.1" transform="matrix(4.93954 -5.22976 5.31915 5.02397 383.52 260.6)" style="fill:none;stroke:#d40d07;stroke-linecap:round"/><path d="M.5 0h4.1" transform="matrix(-5.22976 -4.93954 5.02397 -5.31915 409.56 260.17)" style="fill:none;stroke:#d40d07;stroke-linecap:round"/><path d="M.5 0h4.1" transform="matrix(4.93954 -5.22976 5.31915 5.02397 354.65 260.6)" style="fill:none;stroke:#d40d07;stroke-linecap:round"/><path d="M.5 0h4.1" transform="matrix(-5.22976 -4.93954 5.02397 -5.31915 380.69 260.17)" style="fill:none;stroke:#d40d07;stroke-linecap:round"/><path d="M.5 0h4.1" transform="matrix(4.93954 -5.22976 5.31915 5.02397 384.7 289.19)" style="fill:none;stroke:#d40d07;stroke-linecap:round"/><path d="M.5 0h4.1" transform="matrix(-5.22976 -4.93954 5.02397 -5.31915 410.73 288.77)" style="fill:none;stroke:#d40d07;stroke-linecap:round"/><path d="M.5 0h4.1" transform="matrix(4.93954 -5.22976 5.31915 5.02397 355.82 289.19)" style="fill:none;stroke:#d40d07;stroke-linecap:round"/><path d="M.5 0h4.1" transform="matrix(-5.22976 -4.93954 5.02397 -5.31915 381.86 288.77)" style="fill:none;stroke:#d40d07;stroke-linecap:round"/><path d="M.5 0h4.1" transform="matrix(4.93954 -5.22976 5.31915 5.02397 383.52 317.78)" style="fill:none;stroke:#d40d07;stroke-linecap:round"/><path d="M.5 0h4.1" transform="matrix(-5.22976 -4.93954 5.02397 -5.31915 409.56 317.37)" style="fill:none;stroke:#d40d07;stroke-linecap:round"/><path d="M.5 0h4.1" transform="matrix(4.93954 -5.22976 5.31915 5.02397 354.65 317.78)" style="fill:none;stroke:#d40d07;stroke-linecap:round"/><path d="M.5 0h4.1" transform="matrix(-5.22976 -4.93954 5.02397 -5.31915 380.69 317.37)" style="fill:none;stroke:#d40d07;stroke-linecap:round"/><path d="M.5 0h4.1" transform="matrix(4.93954 -5.22976 5.31915 5.02397 32.3 348.35)" style="fill:none;stroke:#d40d07;stroke-linecap:round"/><path d="M.5 0h4.1" transform="matrix(-5.22976 -4.93954 5.02397 -5.31915 58.34 347.93)" style="fill:none;stroke:#d40d07;stroke-linecap:round"/><path d="M.5 0h4.1" transform="matrix(4.93954 -5.22976 5.31915 5.02397 3.42 348.35)" style="fill:none;stroke:#d40d07;stroke-linecap:round"/><path d="M.5 0h4.1" transform="matrix(-5.22976 -4.93954 5.02397 -5.31915 29.46 347.93)" style="fill:none;stroke:#d40d07;stroke-linecap:round"/><path d="M.5 0h4.1" transform="matrix(4.93954 -5.22976 5.31915 5.02397 32.3 377.6)" style="fill:none;stroke:#d40d07;stroke-linecap:round"/><path d="M.5 0h4.1" transform="matrix(-5.22976 -4.93954 5.02397 -5.31915 58.34 377.18)" style="fill:none;stroke:#d40d07;stroke-linecap:round"/><path d="M.5 0h4.1" transform="matrix(4.93954 -5.22976 5.31915 5.02397 3.42 377.6)" style="fill:none;stroke:#d40d07;stroke-linecap:round"/><path d="M.5 0h4.1" transform="matrix(-5.22976 -4.93954 5.02397 -5.31915 29.46 377.18)" style="fill:none;stroke:#d40d07;stroke-linecap:round"/><path d="M.5 0h4.1" transform="matrix(4.93954 -5.22976 5.31915 5.02397 33.47 406.2)" style="fill:none;stroke:#d40d07;stroke-linecap:round"/><path d="M.5 0h4.1" transform="matrix(-5.22976 -4.93954 5.02397 -5.31915 59.51 405.78)" style="fill:none;stroke:#d40d07;stroke-linecap:round"/><path d="M.5 0h4.1" transform="matrix(4.93954 -5.22976 5.31915 5.02397 4.6 406.2)" style="fill:none;stroke:#d40d07;stroke-linecap:round"/><path d="M.5 0h4.1" transform="matrix(-5.22976 -4.93954 5.02397 -5.31915 30.64 405.78)" style="fill:none;stroke:#d40d07;stroke-linecap:round"/><path d="M.5 0h4.1" transform="matrix(4.93954 -5.22976 5.31915 5.02397 383.52 345.72)" style="fill:none;stroke:#d40d07;stroke-linecap:round"/><path d="M.5 0h4.1" transform="matrix(-5.22976 -4.93954 5.02397 -5.31915 409.56 345.3)" style="fill:none;stroke:#d40d07;stroke-linecap:round"/><path d="M.5 0h4.1" transform="matrix(4.93954 -5.22976 5.31915 5.02397 354.65 345.72)" style="fill:none;stroke:#d40d07;stroke-linecap:round"/><path d="M.5 0h4.1" transform="matrix(-5.22976 -4.93954 5.02397 -5.31915 380.69 345.3)" style="fill:none;stroke:#d40d07;stroke-linecap:round"/><path d="M.5 0h4.1" transform="matrix(4.93954 -5.22976 5.31915 5.02397 383.52 374.97)" style="fill:none;stroke:#d40d07;stroke-linecap:round"/><path d="M.5 0h4.1" transform="matrix(-5.22976 -4.93954 5.02397 -5.31915 409.56 374.56)" style="fill:none;stroke:#d40d07;stroke-linecap:round"/><path d="M.5 0h4.1" transform="matrix(4.93954 -5.22976 5.31915 5.02397 354.65 374.97)" style="fill:none;stroke:#d40d07;stroke-linecap:round"/><path d="M.5 0h4.1" transform="matrix(-5.22976 -4.93954 5.02397 -5.31915 380.69 374.56)" style="fill:none;stroke:#d40d07;stroke-linecap:round"/><path d="M.5 0h4.1" transform="matrix(4.93954 -5.22976 5.31915 5.02397 384.7 403.57)" style="fill:none;stroke:#d40d07;stroke-linecap:round"/><path d="M.5 0h4.1" transform="matrix(-5.22976 -4.93954 5.02397 -5.31915 410.73 403.15)" style="fill:none;stroke:#d40d07;stroke-linecap:round"/><path d="M.5 0h4.1" transform="matrix(4.93954 -5.22976 5.31915 5.02397 355.82 403.57)" style="fill:none;stroke:#d40d07;stroke-linecap:round"/><path d="M.5 0h4.1" transform="matrix(-5.22976 -4.93954 5.02397 -5.31915 381.86 403.15)" style="fill:none;stroke:#d40d07;stroke-linecap:round"/><path d="M.5 0h4.1" transform="matrix(4.93954 -5.22976 5.31915 5.02397 90.14 30.03)" style="fill:none;stroke:#d40d07;stroke-linecap:round"/><path d="M.5 0h4.1" transform="matrix(-5.22976 -4.93954 5.02397 -5.31915 116.18 29.61)" style="fill:none;stroke:#d40d07;stroke-linecap:round"/><path d="M.5 0h4.1" transform="matrix(4.93954 -5.22976 5.31915 5.02397 119.4 30.03)" style="fill:none;stroke:#d40d07;stroke-linecap:round"/><path d="M.5 0h4.1" transform="matrix(-5.22976 -4.93954 5.02397 -5.31915 145.44 29.61)" style="fill:none;stroke:#d40d07;stroke-linecap:round"/><path d="M.5 0h4.1" transform="matrix(4.93954 -5.22976 5.31915 5.02397 149.3 30.03)" style="fill:none;stroke:#d40d07;stroke-linecap:round"/><path d="M.5 0h4.1" transform="matrix(-5.22976 -4.93954 5.02397 -5.31915 175.34 29.61)" style="fill:none;stroke:#d40d07;stroke-linecap:round"/><path d="M.5 0h4.1" transform="matrix(4.93954 -5.22976 5.31915 5.02397 178.66 30.03)" style="fill:none;stroke:#d40d07;stroke-linecap:round"/><path d="M.5 0h4.1" transform="matrix(-5.22976 -4.93954 5.02397 -5.31915 204.7 29.61)" style="fill:none;stroke:#d40d07;stroke-linecap:round"/><path d="M.5 0h4.1" transform="matrix(4.93954 -5.22976 5.31915 5.02397 208.39 30.03)" style="fill:none;stroke:#d40d07;stroke-linecap:round"/><path d="M.5 0h4.1" transform="matrix(-5.22976 -4.93954 5.02397 -5.31915 234.43 29.61)" style="fill:none;stroke:#d40d07;stroke-linecap:round"/><path d="M.5 0h4.1" transform="matrix(4.93954 -5.22976 5.31915 5.02397 237.64 30.03)" style="fill:none;stroke:#d40d07;stroke-linecap:round"/><path d="M.5 0h4.1" transform="matrix(-5.22976 -4.93954 5.02397 -5.31915 263.68 29.61)" style="fill:none;stroke:#d40d07;stroke-linecap:round"/><path d="M.5 0h4.1" transform="matrix(4.93954 -5.22976 5.31915 5.02397 266.89 30.03)" style="fill:none;stroke:#d40d07;stroke-linecap:round"/><path d="M.5 0h4.1" transform="matrix(-5.22976 -4.93954 5.02397 -5.31915 292.93 29.61)" style="fill:none;stroke:#d40d07;stroke-linecap:round"/><path d="M.5 0h4.1" transform="matrix(4.93954 -5.22976 5.31915 5.02397 296.14 30.03)" style="fill:none;stroke:#d40d07;stroke-linecap:round"/><path d="M.5 0h4.1" transform="matrix(-5.22976 -4.93954 5.02397 -5.31915 322.18 29.61)" style="fill:none;stroke:#d40d07;stroke-linecap:round"/><path d="M.5 0h4.1" transform="matrix(4.93954 -5.22976 5.31915 5.02397 61.27 30.03)" style="fill:none;stroke:#d40d07;stroke-linecap:round"/><path d="M.5 0h4.1" transform="matrix(-5.22976 -4.93954 5.02397 -5.31915 87.3 29.61)" style="fill:none;stroke:#d40d07;stroke-linecap:round"/><path d="M.5 0h4.1" transform="matrix(4.93954 -5.22976 5.31915 5.02397 325.4 30.03)" style="fill:none;stroke:#d40d07;stroke-linecap:round"/><path d="M.5 0h4.1" transform="matrix(-5.22976 -4.93954 5.02397 -5.31915 351.43 29.61)" style="fill:none;stroke:#d40d07;stroke-linecap:round"/><path d="M.5 0h4.1" transform="matrix(4.93954 -5.22976 5.31915 5.02397 32.3 30.03)" style="fill:none;stroke:#d40d07;stroke-linecap:round"/><path d="M.5 0h4.1" transform="matrix(-5.22976 -4.93954 5.02397 -5.31915 58.34 29.61)" style="fill:none;stroke:#d40d07;stroke-linecap:round"/><path d="M.5 0h4.1" transform="matrix(4.93954 -5.22976 5.31915 5.02397 383.52 30.03)" style="fill:none;stroke:#d40d07;stroke-linecap:round"/><path d="M.5 0h4.1" transform="matrix(-5.22976 -4.93954 5.02397 -5.31915 409.56 29.61)" style="fill:none;stroke:#d40d07;stroke-linecap:round"/><path d="M.5 0h4.1" transform="matrix(4.93954 -5.22976 5.31915 5.02397 354.65 30.03)" style="fill:none;stroke:#d40d07;stroke-linecap:round"/><path d="M.5 0h4.1" transform="matrix(-5.22976 -4.93954 5.02397 -5.31915 380.69 29.61)" style="fill:none;stroke:#d40d07;stroke-linecap:round"/><path d="M.5 0h4.1" transform="matrix(4.93954 -5.22976 5.31915 5.02397 412.77 59.28)" style="fill:none;stroke:#d40d07;stroke-linecap:round"/><path d="M.5 0h4.1" transform="matrix(-5.22976 -4.93954 5.02397 -5.31915 438.81 58.87)" style="fill:none;stroke:#d40d07;stroke-linecap:round"/><path d="M.5 0h4.1" transform="matrix(4.93954 -5.22976 5.31915 5.02397 412.77 88.54)" style="fill:none;stroke:#d40d07;stroke-linecap:round"/><path d="M.5 0h4.1" transform="matrix(-5.22976 -4.93954 5.02397 -5.31915 438.81 88.12)" style="fill:none;stroke:#d40d07;stroke-linecap:round"/><path d="M.5 0h4.1" transform="matrix(4.93954 -5.22976 5.31915 5.02397 412.77 117.13)" style="fill:none;stroke:#d40d07;stroke-linecap:round"/><path d="M.5 0h4.1" transform="matrix(-5.22976 -4.93954 5.02397 -5.31915 438.81 116.71)" style="fill:none;stroke:#d40d07;stroke-linecap:round"/><path d="M.5 0h4.1" transform="matrix(4.93954 -5.22976 5.31915 5.02397 412.77 147.04)" style="fill:none;stroke:#d40d07;stroke-linecap:round"/><path d="M.5 0h4.1" transform="matrix(-5.22976 -4.93954 5.02397 -5.31915 438.81 146.62)" style="fill:none;stroke:#d40d07;stroke-linecap:round"/><path d="M.5 0h4.1" transform="matrix(4.93954 -5.22976 5.31915 5.02397 412.77 174.98)" style="fill:none;stroke:#d40d07;stroke-linecap:round"/><path d="M.5 0h4.1" transform="matrix(-5.22976 -4.93954 5.02397 -5.31915 438.81 174.56)" style="fill:none;stroke:#d40d07;stroke-linecap:round"/><path d="M.5 0h4.1" transform="matrix(4.93954 -5.22976 5.31915 5.02397 412.77 203.57)" style="fill:none;stroke:#d40d07;stroke-linecap:round"/><path d="M.5 0h4.1" transform="matrix(-5.22976 -4.93954 5.02397 -5.31915 438.81 203.16)" style="fill:none;stroke:#d40d07;stroke-linecap:round"/><path d="M.5 0h4.1" transform="matrix(4.93954 -5.22976 5.31915 5.02397 412.77 231.34)" style="fill:none;stroke:#d40d07;stroke-linecap:round"/><path d="M.5 0h4.1" transform="matrix(-5.22976 -4.93954 5.02397 -5.31915 438.81 230.92)" style="fill:none;stroke:#d40d07;stroke-linecap:round"/><path d="M.5 0h4.1" transform="matrix(4.93954 -5.22976 5.31915 5.02397 412.77 260.6)" style="fill:none;stroke:#d40d07;stroke-linecap:round"/><path d="M.5 0h4.1" transform="matrix(-5.22976 -4.93954 5.02397 -5.31915 438.81 260.17)" style="fill:none;stroke:#d40d07;stroke-linecap:round"/><path d="M.5 0h4.1" transform="matrix(4.93954 -5.22976 5.31915 5.02397 413.94 289.19)" style="fill:none;stroke:#d40d07;stroke-linecap:round"/><path d="M.5 0h4.1" transform="matrix(-5.22976 -4.93954 5.02397 -5.31915 439.98 288.77)" style="fill:none;stroke:#d40d07;stroke-linecap:round"/><path d="M.5 0h4.1" transform="matrix(4.93954 -5.22976 5.31915 5.02397 412.77 317.78)" style="fill:none;stroke:#d40d07;stroke-linecap:round"/><path d="M.5 0h4.1" transform="matrix(-5.22976 -4.93954 5.02397 -5.31915 438.81 317.37)" style="fill:none;stroke:#d40d07;stroke-linecap:round"/><path d="M.5 0h4.1" transform="matrix(4.93954 -5.22976 5.31915 5.02397 412.77 345.72)" style="fill:none;stroke:#d40d07;stroke-linecap:round"/><path d="M.5 0h4.1" transform="matrix(-5.22976 -4.93954 5.02397 -5.31915 438.81 345.3)" style="fill:none;stroke:#d40d07;stroke-linecap:round"/><path d="M.5 0h4.1" transform="matrix(4.93954 -5.22976 5.31915 5.02397 412.77 374.97)" style="fill:none;stroke:#d40d07;stroke-linecap:round"/><path d="M.5 0h4.1" transform="matrix(-5.22976 -4.93954 5.02397 -5.31915 438.81 374.56)" style="fill:none;stroke:#d40d07;stroke-linecap:round"/><path d="M.5 0h4.1" transform="matrix(4.93954 -5.22976 5.31915 5.02397 413.94 403.57)" style="fill:none;stroke:#d40d07;stroke-linecap:round"/><path d="M.5 0h4.1" transform="matrix(-5.22976 -4.93954 5.02397 -5.31915 439.98 403.15)" style="fill:none;stroke:#d40d07;stroke-linecap:round"/><path d="M.5 0h4.1" transform="matrix(4.93954 -5.22976 5.31915 5.02397 62.2 433.15)" style="fill:none;stroke:#d40d07;stroke-linecap:round"/><path d="M.5 0h4.1" transform="matrix(-5.22976 -4.93954 5.02397 -5.31915 88.25 432.73)" style="fill:none;stroke:#d40d07;stroke-linecap:round"/><path d="M.5 0h4.1" transform="matrix(4.93954 -5.22976 5.31915 5.02397 91.08 433.15)" style="fill:none;stroke:#d40d07;stroke-linecap:round"/><path d="M.5 0h4.1" transform="matrix(-5.22976 -4.93954 5.02397 -5.31915 117.12 432.73)" style="fill:none;stroke:#d40d07;stroke-linecap:round"/><path d="M.5 0h4.1" transform="matrix(4.93954 -5.22976 5.31915 5.02397 120.33 433.15)" style="fill:none;stroke:#d40d07;stroke-linecap:round"/><path d="M.5 0h4.1" transform="matrix(-5.22976 -4.93954 5.02397 -5.31915 146.37 432.73)" style="fill:none;stroke:#d40d07;stroke-linecap:round"/><path d="M.5 0h4.1" transform="matrix(4.93954 -5.22976 5.31915 5.02397 150.24 433.15)" style="fill:none;stroke:#d40d07;stroke-linecap:round"/><path d="M.5 0h4.1" transform="matrix(-5.22976 -4.93954 5.02397 -5.31915 176.28 432.73)" style="fill:none;stroke:#d40d07;stroke-linecap:round"/><path d="M.5 0h4.1" transform="matrix(4.93954 -5.22976 5.31915 5.02397 238.58 433.15)" style="fill:none;stroke:#d40d07;stroke-linecap:round"/><path d="M.5 0h4.1" transform="matrix(-5.22976 -4.93954 5.02397 -5.31915 264.62 432.73)" style="fill:none;stroke:#d40d07;stroke-linecap:round"/><path d="M.5 0h4.1" transform="matrix(4.93954 -5.22976 5.31915 5.02397 267.83 433.15)" style="fill:none;stroke:#d40d07;stroke-linecap:round"/><path d="M.5 0h4.1" transform="matrix(-5.22976 -4.93954 5.02397 -5.31915 293.87 432.73)" style="fill:none;stroke:#d40d07;stroke-linecap:round"/><path d="M.5 0h4.1" transform="matrix(4.93954 -5.22976 5.31915 5.02397 297.08 433.15)" style="fill:none;stroke:#d40d07;stroke-linecap:round"/><path d="M.5 0h4.1" transform="matrix(-5.22976 -4.93954 5.02397 -5.31915 323.12 432.73)" style="fill:none;stroke:#d40d07;stroke-linecap:round"/><path d="M.5 0h4.1" transform="matrix(4.93954 -5.22976 5.31915 5.02397 326.33 433.15)" style="fill:none;stroke:#d40d07;stroke-linecap:round"/><path d="M.5 0h4.1" transform="matrix(-5.22976 -4.93954 5.02397 -5.31915 352.37 432.73)" style="fill:none;stroke:#d40d07;stroke-linecap:round"/><path d="M.5 0h4.1" transform="matrix(4.93954 -5.22976 5.31915 5.02397 178.66 433.15)" style="fill:none;stroke:#d40d07;stroke-linecap:round"/><path d="M.5 0h4.1" transform="matrix(-5.22976 -4.93954 5.02397 -5.31915 204.7 432.73)" style="fill:none;stroke:#d40d07;stroke-linecap:round"/><path d="M.5 0h4.1" transform="matrix(4.93954 -5.22976 5.31915 5.02397 208.39 433.15)" style="fill:none;stroke:#d40d07;stroke-linecap:round"/><path d="M.5 0h4.1" transform="matrix(-5.22976 -4.93954 5.02397 -5.31915 234.43 432.73)" style="fill:none;stroke:#d40d07;stroke-linecap:round"/><path d="M.5 0h4.1" transform="matrix(4.93954 -5.22976 5.31915 5.02397 33.47 434.79)" style="fill:none;stroke:#d40d07;stroke-linecap:round"/><path d="M.5 0h4.1" transform="matrix(-5.22976 -4.93954 5.02397 -5.31915 59.51 434.37)" style="fill:none;stroke:#d40d07;stroke-linecap:round"/><path d="M.5 0h4.1" transform="matrix(4.93954 -5.22976 5.31915 5.02397 384.7 432.17)" style="fill:none;stroke:#d40d07;stroke-linecap:round"/><path d="M.5 0h4.1" transform="matrix(-5.22976 -4.93954 5.02397 -5.31915 410.73 431.75)" style="fill:none;stroke:#d40d07;stroke-linecap:round"/><path d="M.5 0h4.1" transform="matrix(4.93954 -5.22976 5.31915 5.02397 355.82 432.17)" style="fill:none;stroke:#d40d07;stroke-linecap:round"/><path d="M.5 0h4.1" transform="matrix(-5.22976 -4.93954 5.02397 -5.31915 381.86 431.75)" style="fill:none;stroke:#d40d07;stroke-linecap:round"/></svg>