<svg xmlns="http://www.w3.org/2000/svg" viewBox="0 0 465.23 458.45" version="1.0"><title>Logo</title><path style="fill:none;stroke:#d40d07;stroke-width:5.19603729;stroke-linecap:round" d="m144.58 67.17 15.95 15.95M144.94 82.82l15.95-15.95M124.78 47.37l15.95 15.95M125.14 63.01l15.95-15.94M144.58 27.57l15.95 15.95M144.94 43.21l15.95-15.94M164.38 6.93l15.95 15.94M164.74 22.57 180.7 6.62M184.18 27.57l15.95 15.95M184.54 43.21l15.95-15.94M204.1 47.37l15.94 15.95M204.45 63.01l15.95-15.94M224.21 67.17l15.95 15.95M224.57 82.82l15.95-15.95M243.8 47.37l15.95 15.95M244.17 63.01l15.94-15.94M263.6 27.57l15.95 15.95M263.97 43.21l15.94-15.94M282.76 6.93l15.95 15.94M283.12 22.57l15.95-15.95M302.57 27.57l15.94 15.95M302.93 43.21l15.94-15.94M322.37 47.37l15.94 15.95M322.73 63.01l15.94-15.94M302.56 67.17l15.95 15.95M302.92 82.82l15.95-15.95M204.1 86.97l15.94 15.95M204.45 102.62l15.95-15.95M243.8 86.97l15.95 15.95M244.17 102.62l15.94-15.95M263.6 106.77l15.95 15.95M263.97 122.42l15.94-15.95M184.18 106.77l15.95 15.95M184.54 122.42l15.95-15.95M164.38 125.93l15.95 15.95M164.74 141.58l15.95-15.95M282.77 125.93l15.94 15.95M283.12 141.58l15.95-15.95M144.58 145.73l15.95 15.95M144.94 161.38l15.95-15.95M302.57 145.73l15.94 15.95M302.92 161.38l15.95-15.95M322.37 165.53l15.94 15.95M322.73 181.18l15.94-15.95M124.78 165.53l15.95 15.95M125.14 181.18l15.95-15.95M164.38 165.53l15.95 15.95M164.74 181.17l15.95-15.94M282.76 165.53l15.95 15.95M283.12 181.18l15.95-15.95M184.18 185.33l15.95 15.95M184.54 200.98l15.95-15.95M263.6 185.33l15.95 15.95M263.97 200.98l15.94-15.95M224.21 145.73l15.95 15.95M224.57 161.38l15.95-15.95M204.1 206.9l15.94 15.95M204.45 222.54l15.95-15.94M243.8 206.9l15.95 15.95M244.17 222.54l15.94-15.94M224.21 226.7l15.95 15.95M224.57 242.34l15.95-15.95M64.53 145.73l15.95 15.95M64.9 161.38l15.94-15.95M45.07 125.93l15.95 15.95M45.43 141.58l15.95-15.95M25.27 145.73l15.95 15.95M25.63 161.38l15.95-15.95M2.62 165.53l15.95 15.95M2.98 181.18l15.95-15.95M25.27 185.33l15.95 15.95M25.63 200.98l15.95-15.95M45.07 206.9l15.95 15.95M45.43 222.54l15.95-15.94M144.58 226.7l15.95 15.95M144.94 242.34l15.95-15.95M104.98 185.33l15.94 15.95M105.34 200.98l15.95-15.95M85.4 206.9l15.95 15.95M85.76 222.54l15.95-15.94M64.53 226.7l15.95 15.95M64.9 242.34l15.94-15.95M302.57 226.7l15.94 15.95M302.92 242.34l15.95-15.95M345.01 185.33l15.95 15.95M345.37 200.98l15.95-15.95M364.4 206.9l15.95 15.95M364.76 222.54l15.95-15.94M380.05 145.73 396 161.68M380.41 161.38l15.95-15.95M402.7 125.93l15.94 15.95M403.06 141.58 419 125.63M422.5 145.73l15.94 15.95M422.86 161.38l15.95-15.95M442.3 165.53l15.95 15.95M442.66 181.18l15.95-15.95M422.5 185.33l15.94 15.95M422.86 200.98l15.95-15.95M402.7 206.9l15.94 15.95M403.06 222.54 419 206.6M383.64 226.7l15.95 15.95M384 242.34l15.94-15.95M204.1 245.98l15.94 15.95M204.45 261.63l15.95-15.95M243.8 245.98l15.95 15.95M244.17 261.63l15.94-15.95M85.4 245.98l15.95 15.95M85.76 261.63l15.95-15.95M45.07 245.98l15.95 15.95M45.43 261.63l15.95-15.95M364.4 245.98l15.95 15.95M364.76 261.63l15.95-15.95M402.7 245.98l15.94 15.95M403.06 261.63 419 245.68M184.18 265.45l15.95 15.95M184.54 281.1l15.95-15.95M263.6 265.45l15.95 15.95M263.97 281.1l15.94-15.95M104.98 265.45l15.94 15.95M105.34 281.1l15.95-15.95M25.27 265.45l15.95 15.95M25.63 281.1l15.95-15.95M341.75 265.45l15.95 15.95M342.11 281.1l15.95-15.95M422.5 265.45l15.94 15.95M422.86 281.1l15.95-15.95M164.38 284.6l15.95 15.96M164.74 300.25l15.95-15.94M124.78 284.6l15.95 15.96M125.14 300.25l15.95-15.94M282.76 284.6l15.95 15.96M283.12 300.25l15.95-15.94M322.37 284.6l15.94 15.96M322.73 300.25l15.94-15.94M442.3 284.6l15.95 15.96M442.66 300.25l15.95-15.94M4.73 284.6l15.95 15.96M5.1 300.25l15.94-15.94M144.58 304.07l15.95 15.95M144.94 319.72l15.95-15.95M25.27 304.07l15.95 15.95M25.63 319.72l15.95-15.95M64.53 304.07l15.95 15.95M64.9 319.72l15.94-15.95M45.07 323.23l15.95 15.95M45.43 338.88l15.95-15.95M302.57 304.07l15.94 15.95M302.92 319.72l15.95-15.95M224.21 304.07l15.95 15.95M224.57 319.72l15.95-15.95M383.64 304.07l15.94 15.95M384 319.72l15.94-15.95M422.5 304.07l15.94 15.95M422.86 319.72l15.95-15.95M164.38 323.23l15.95 15.95M164.74 338.88l15.95-15.95M282.76 323.23l15.95 15.95M283.12 338.88l15.95-15.95M402.7 323.23l15.94 15.95M403.06 338.88 419 322.93M184.18 343.03l15.95 15.95M184.54 358.68l15.95-15.95M263.6 343.03l15.95 15.95M263.97 358.68l15.94-15.95M204.1 361.7l15.94 15.95M204.45 377.34l15.95-15.94M243.8 361.7l15.95 15.95M244.17 377.34l15.94-15.94M224.21 381.12l15.95 15.95M224.57 396.76l15.95-15.94M144.58 381.12l15.95 15.95M144.94 396.76l15.95-15.94M302.56 381.12l15.95 15.95M302.93 396.76l15.94-15.94M124.78 400.28l15.95 15.95M125.14 415.92l15.95-15.94M322.37 400.28l15.94 15.95M322.73 415.93l15.94-15.95M144.58 420.08l15.95 15.95M144.94 435.73l15.95-15.95M302.57 420.08l15.94 15.95M302.92 435.73l15.95-15.95M204.1 400.28l15.94 15.95M204.45 415.93l15.95-15.95M243.8 400.28l15.95 15.95M244.17 415.93l15.94-15.95M184.18 420.08l15.95 15.95M184.54 435.73l15.95-15.95M263.6 420.08l15.95 15.95M263.97 435.73l15.94-15.95M164.38 439.88l15.95 15.95M164.74 455.53l15.95-15.95M282.76 439.88l15.95 15.95M283.12 455.53l15.95-15.95" transform="translate(1.72 -1.72)"/></svg>