<svg xmlns="http://www.w3.org/2000/svg" viewBox="0 0 265.6 192.13" version="1.0"><title>Menu</title><path style="fill:none;stroke:#d40d07;stroke-width:6.15025806;stroke-linecap:round" d="M4.06 26.33 22.2 7.11M22.94 25.66 3.72 7.5M30.1 26.33 48.23 7.11M48.97 25.66 29.75 7.5M56.26 26.33 74.42 7.11M75.14 25.66 55.92 7.5M82.17 26.33 100.3 7.11M101.04 25.66 81.83 7.5M107.81 26.33l18.15-19.22M126.69 25.66 107.47 7.5M133.56 26.33l18.16-19.22M152.45 25.66 133.23 7.5M159.21 26.33l18.15-19.22M178.1 25.66 158.86 7.5M184.97 26.33l18.15-19.22M203.85 25.66 184.63 7.5M210.83 26.33l18.15-19.22M229.7 25.66 210.5 7.5M236.48 26.33l18.15-19.22M255.36 25.66 236.14 7.5M7.19 107.8l18.15-19.22M26.07 107.12 6.85 88.97M33.22 107.8l18.15-19.22M52.1 107.12 32.88 88.97M59.4 107.8l18.15-19.22M78.27 107.12 59.06 88.97M85.3 107.8l18.15-19.22M104.18 107.12 84.96 88.97M110.94 107.8l18.16-19.22M129.82 107.12 110.6 88.97M136.7 107.8l18.15-19.22M155.58 107.12l-19.22-18.15M162.34 107.8l18.16-19.22M181.22 107.12l-19.21-18.15M188.1 107.8l18.15-19.22M206.98 107.12l-19.22-18.15M213.96 107.8l18.15-19.22M232.84 107.12l-19.22-18.15M239.61 107.8l18.15-19.22M258.49 107.12l-19.22-18.15M3.45 189.01l18.16-19.22M22.33 188.34 3.11 170.18M29.49 189.01l18.15-19.22M48.36 188.34l-19.21-18.16M55.66 189.01l18.15-19.22M74.54 188.34l-19.22-18.16M81.56 189.01 99.7 169.8M100.44 188.34l-19.22-18.16M107.2 189.01l18.16-19.22M126.09 188.34l-19.22-18.16M132.96 189.01l18.15-19.22M151.84 188.34l-19.22-18.16M158.6 189.01l18.16-19.22M177.49 188.34l-19.22-18.16M184.36 189.01l18.16-19.22M203.24 188.34l-19.21-18.16M210.23 189.01l18.15-19.22M229.1 188.34l-19.21-18.16M235.87 189.01l18.15-19.22M254.75 188.34l-19.21-18.16" transform="translate(2.57 -1.72)"/></svg>