<svg xmlns="http://www.w3.org/2000/svg" version="1.0" viewBox="0 0 156.5 298.7"><path d="M2 12 12 2m0 10L2 2m13 23 10-11m0 11L15 15m13 23 10-11m0 10-10-9m13 23 10-11m0 10-10-9m13 23 9-10m1 9-10-9m13 23 10-10m0 9-10-9m13 23 10-10m0 10L80 80m13 23 10-10m0 10L93 93m13 23 10-11m0 10-10-9m13 23 9-11m1 10-11-9m14 22 10-10m0 10-10-9m13 22 9-10m1 10-11-10m-12 23 10-10m0 10-10-10m-13 23 9-10m1 10-11-9m-12 22 10-10m0 10-10-9m-13 22 10-10m0 10-10-10m-13 23 10-10m0 10-10-10m-13 23 10-10m0 10-10-10m-13 23 9-11m1 11-10-10m-13 23 9-11m1 10-11-9m-12 23 10-10m0 10-10-10m-13 23 10-10m0 9-10-9M2 297l10-10m0 10L2 287M2 64l10-10m0 9L2 54m13 23 10-10m0 9-10-9m13 23 10-10m0 10L28 80m13 23 10-10m0 10L41 93m13 23 9-11m1 10-10-9m13 23 10-11m0 10-10-9m13 22 10-10m0 10-10-9m13 22 10-10m0 10-10-10m-13 23 10-10m0 10-10-10m-13 23 10-10m0 10-10-9m-13 22 9-10m1 10-10-9m-13 22 10-10m0 10-10-10m-13 23 10-10m0 10-10-10m-13 23 10-10m0 10-10-10M2 245l10-11m0 11L2 235" style="fill:none;stroke:#d40d07;stroke-width:3.46419191;stroke-linecap:round"/></svg>