<svg xmlns="http://www.w3.org/2000/svg" viewBox="0 0 529.1 519.63" version="1.0"><title>Telefon</title><path style="fill:none;stroke:#d40d07;stroke-width:5.83859301;stroke-linecap:round" d="M72.89 25.2 90.12 6.96M90.8 24.56 72.58 7.33M49.23 46.75 66.47 28.5M67.16 46.1 48.91 28.89M97.74 46.75l17.23-18.24M115.66 46.1 97.42 28.89M25.25 68.16l17.23-18.24M43.17 67.52 24.92 50.28M121.73 68.16l17.23-18.24M139.66 67.52 121.4 50.28M3.28 93.88 20.5 75.63M21.2 93.24 2.96 76M146.59 93.88l17.23-18.25M164.51 93.24 146.27 76M3.28 117.87 20.5 99.62M21.2 117.23 2.96 100M170.58 117.87l17.23-18.25M188.5 117.23 170.26 100M3.28 141.86l17.23-18.24M21.2 141.22 2.96 123.99M193.43 141.86l17.23-18.24M211.35 141.22l-18.24-17.23M3.28 165.87l17.23-18.24M21.2 165.23 2.96 148M170.58 165.87l17.23-18.24M188.5 165.23 170.26 148M3.28 189.87l17.23-18.25M21.2 189.22 2.96 172M146.59 189.87l17.23-18.25M164.51 189.22 146.27 172M3.28 214.72l17.23-18.24M21.2 214.08 2.96 196.85M3.28 237.96 20.5 219.7M21.2 237.31 2.96 220.08M121.73 214.72l17.23-18.24M139.66 214.08l-18.25-17.23M146.59 237.96l17.23-18.25M164.51 237.31l-18.24-17.23M25.25 261.8l17.23-18.25M43.17 261.16l-18.25-17.24M170.58 261.8l17.23-18.25M188.5 261.16l-18.24-17.24M49.23 308.92l17.24-18.25M67.16 308.27l-18.25-17.23M193.43 284.06l17.23-18.24M211.35 283.42l-18.24-17.23M73.75 333.77l17.23-18.24M91.67 333.13 73.43 315.9M97.74 356.01l17.23-18.25M115.66 355.37l-18.24-17.23M216.21 308.05l17.23-18.24M234.13 307.4l-18.24-17.22M238.86 332.9l17.23-18.24M256.78 332.26l-18.25-17.23M263.71 356.01l17.23-18.25M281.63 355.37l-18.24-17.23M121.73 377.68l17.23-18.24M139.66 377.04l-18.25-17.23M288.56 377.68l17.24-18.24M306.49 377.04l-18.25-17.23M313.42 400.81l17.23-18.24M331.34 400.17l-18.24-17.23M335.89 377.68l17.23-18.24M353.8 377.04l-18.23-17.23M359.88 356.01l17.23-18.25M377.8 355.37l-18.25-17.23M383.64 333.77l17.23-18.24M401.57 333.13l-18.25-17.23M407.63 356.01l17.24-18.25M425.56 355.37l-18.25-17.23M432.25 377.68l17.23-18.24M450.17 377.04l-18.24-17.23M456.24 400.81l17.23-18.24M474.16 400.17l-18.25-17.23M146.59 400.81l17.23-18.24M164.51 400.17l-18.24-17.23M170.58 423.94l17.23-18.25M188.5 423.3l-18.24-17.23M479.36 423.94l17.24-18.25M497.29 423.3l-18.25-17.23M504.22 447.07l17.23-18.25M522.14 446.42 503.9 429.2M481.09 471.07l17.23-18.24M499.02 470.43l-18.25-17.23M193.43 447.07l17.23-18.25M211.35 446.42 193.1 429.2M216.21 471.07l17.23-18.24M234.13 470.43 215.9 453.2M238.86 493.96l17.23-18.25M256.78 493.32l-18.25-17.24M263.71 493.96l17.23-18.25M281.63 493.32l-18.24-17.24M457.97 493.96l17.23-18.25M475.89 493.32l-18.25-17.24M434.22 516.67l17.23-18.24M452.14 516.03l-18.25-17.23M409.36 516.67l17.23-18.24M427.29 516.03l-18.25-17.23M287.7 516.67l17.23-18.24M305.63 516.03l-18.25-17.23M312.55 516.67l17.24-18.24M330.48 516.03l-18.25-17.23M337.61 516.67l17.24-18.24M355.53 516.03 337.3 498.8M360.74 516.67l17.23-18.24M378.66 516.03l-18.24-17.23M384.5 516.67l17.24-18.24M402.43 516.03l-18.25-17.23M25.25 284.06l17.23-18.24M43.17 283.42l-18.25-17.23" transform="translate(1.72 -1.72)"/></svg>