<svg xmlns="http://www.w3.org/2000/svg" viewBox="0 0 265.6 192.1" version="1.0"><title>Zamknij</title><path style="fill:none;stroke:#d40d07;stroke-width:6.15025806;stroke-linecap:round" d="m48.5 33.4 18.1-19.2m.7 18.5L48.1 14.6M201 31.8l18.2-19.3m.7 18.6-19.2-18.2M73.8 57.3 91.9 38m.7 18.6L73.4 38.4m26.3 42.9L117.8 62m.8 18.6L99.3 62.4m26 42.9L143.5 86m.7 18.6L125 86.4m26-5.1L169.3 62m.8 18.6-19.3-18.2m25.6-6 18.2-19.2m.7 18.6L176 37.6M49.5 179.3 67.6 160m.7 18.5-19.2-18.1m25-6 18-19.2m.8 18.5-19.2-18.2m26.2-5.1 18.2-19.2m.7 18.5-19.2-18.2m51.7 18.9 18.2-19.2m.7 18.5L151 111.6m26 42.9 18.1-19.2m.8 18.5-19.3-18.2m26.1 42.9 18.2-19.2m.7 18.5-19.2-18.2"/></svg>