<svg width="32" height="32" viewBox="0 0 32 32" fill="none" xmlns="http://www.w3.org/2000/svg">
<rect width="32" height="32" fill="white"/>
<path d="M18.8625 28.3082L19.7368 27.4341M11.2689 7.02445L12.1432 7.89858L11.2689 7.02445ZM11.2887 7.88214L12.1629 7.00801L11.2887 7.88214ZM10.1837 5.93933L11.0579 6.81345L10.1837 5.93933ZM10.2034 6.79647L11.0776 5.92289L10.2034 6.79647ZM11.2689 4.8542L12.1432 5.72833L11.2689 4.8542ZM11.2887 5.71134L12.1629 4.83776L11.2887 5.71134ZM12.3542 3.72304L13.2285 4.59662L12.3542 3.72304ZM12.3739 4.58018L13.2487 3.70605L12.3739 4.58018ZM13.4395 4.8542L14.3137 5.72833L13.4395 4.8542ZM13.4592 5.71134L14.3335 4.83776L13.4592 5.71134ZM14.5313 5.93933L15.405 6.81345L14.5313 5.93933ZM14.5505 6.79647L15.4248 5.92289L14.5505 6.79647ZM15.6336 7.02445L16.5078 7.89858L15.6336 7.02445ZM15.6533 7.88214L16.5276 7.00801L15.6533 7.88214ZM16.7073 5.93933L17.5816 6.81345L16.7073 5.93933ZM16.7276 6.79647L17.6013 5.92289L16.7276 6.79647ZM17.7926 4.8542L18.6669 5.72833L17.7926 4.8542ZM17.8129 5.71134L18.6866 4.83776L17.8129 5.71134ZM18.8428 3.72304L19.717 4.59662L18.8428 3.72304ZM18.8625 4.58018L19.7368 3.70605L18.8625 4.58018ZM19.9286 4.8542L20.8023 5.72833L19.9286 4.8542ZM19.9484 5.71134L20.8221 4.83776L19.9484 5.71134ZM21.0139 5.93933L21.8876 6.81345L21.0139 5.93933ZM21.0336 6.79647L21.9073 5.92289L21.0336 6.79647ZM19.9281 7.02445L20.8023 7.89858L19.9281 7.02445ZM19.9478 7.88214L20.8221 7.00801L19.9478 7.88214ZM14.5313 8.10957L15.405 8.9837L14.5313 8.10957ZM14.5505 8.96726L15.4248 8.09313L14.5505 8.96726ZM16.7073 8.10957L17.5816 8.9837L16.7073 8.10957ZM16.7276 8.96726L17.6013 8.09313L16.7276 8.96726ZM17.7926 9.1947L18.6669 10.0688L17.7926 9.1947ZM17.8129 10.0524L18.6866 9.17826L17.8129 10.0524ZM13.4395 9.1947L14.3137 10.0688L13.4395 9.1947ZM13.4592 10.0524L14.3335 9.17826L13.4592 10.0524ZM12.3542 10.2447L13.2285 11.1189L12.3542 10.2447ZM12.3739 11.1024L13.2482 10.2283L12.3739 11.1024ZM18.8434 10.2447L19.717 11.1189L18.8434 10.2447ZM18.8625 11.1024L19.7368 10.2283L18.8625 11.1024ZM11.2689 11.3299L12.1432 12.204L11.2689 11.3299ZM11.2887 12.1876L12.1629 11.3134L11.2887 12.1876ZM19.9286 11.3299L20.8023 12.204L19.9286 11.3299ZM19.9478 12.1876L20.8221 11.3134L19.9478 12.1876ZM21.0139 12.415L21.8876 13.2891L21.0139 12.415ZM21.0336 13.2727L21.9073 12.3986L21.0336 13.2727ZM10.1837 12.415L11.0579 13.2891L10.1837 12.415ZM10.2034 13.2727L11.0776 12.3986L10.2034 13.2727ZM12.3542 12.415L13.2285 13.2891L12.3542 12.415ZM12.3739 13.2721L13.2482 12.3986L12.3739 13.2721ZM18.8428 12.415L19.717 13.2891L18.8428 12.415ZM18.8625 13.2727L19.7368 12.3986L18.8625 13.2727ZM13.4395 13.5001L14.3137 14.3742L13.4395 13.5001ZM13.4592 14.3578L14.3335 13.4837L13.4592 14.3578ZM17.7926 13.5001L18.6669 14.3742L17.7926 13.5001ZM17.8129 14.3578L18.6866 13.4837L17.8129 14.3578ZM15.6336 11.3299L16.5078 12.204L15.6336 11.3299ZM15.6533 12.1876L16.5276 11.3134L15.6533 12.1876ZM14.5313 14.6822L15.405 15.5564L14.5313 14.6822ZM14.5505 15.5394L15.4248 14.6658L14.5505 15.5394ZM16.7073 14.6822L17.5816 15.5564L16.7073 14.6822ZM16.7276 15.5394L17.6013 14.6658L16.7276 15.5394ZM15.6336 15.7674L16.5078 16.6415L15.6336 15.7674ZM15.6533 16.6245L16.5276 15.7504L15.6533 16.6245ZM6.88127 11.3299L7.75552 12.204L6.88127 11.3299ZM6.90155 12.1876L7.77525 11.3134L6.90155 12.1876ZM5.81464 10.2447L6.68888 11.1189L5.81464 10.2447ZM5.83437 11.1024L6.70861 10.2283L5.83437 11.1024ZM4.72937 11.3299L5.60361 12.204L4.72937 11.3299ZM4.7491 12.1876L5.62334 11.3134L4.7491 12.1876ZM3.48788 12.415L4.36213 13.2891L3.48788 12.415ZM3.50762 13.2727L4.38186 12.3986L3.50762 13.2727ZM4.72937 13.5001L5.60361 14.3742L4.72937 13.5001ZM4.7491 14.3578L5.62334 13.4837L4.7491 14.3578ZM5.81464 14.6822L6.68888 15.5564L5.81464 14.6822ZM5.83437 15.5394L6.70861 14.6658L5.83437 15.5394ZM11.2689 15.7674L12.1432 16.6415L11.2689 15.7674ZM11.2887 16.6245L12.1629 15.7504L11.2887 16.6245ZM9.0984 13.5001L9.9721 14.3742L9.0984 13.5001ZM9.11813 14.3578L9.99238 13.4837L9.11813 14.3578ZM8.02519 14.6822L8.89943 15.5564L8.02519 14.6822ZM8.04492 15.5394L8.91917 14.6658L8.04492 15.5394ZM6.88127 15.7674L7.75552 16.6415L6.88127 15.7674ZM6.90155 16.6245L7.77525 15.7504L6.90155 16.6245ZM19.9286 15.7674L20.8023 16.6415L19.9286 15.7674ZM19.9478 16.6245L20.8221 15.7504L19.9478 16.6245ZM22.2548 13.5001L23.1291 14.3742L22.2548 13.5001ZM22.2746 14.3578L23.1488 13.4837L22.2746 14.3578ZM23.3176 14.6822L24.1919 15.5564L23.3176 14.6822ZM23.3374 15.5394L24.2116 14.6658L23.3374 15.5394ZM24.1754 11.3299L25.0497 12.204L24.1754 11.3299ZM24.1952 12.1876L25.0694 11.3134L24.1952 12.1876ZM25.4169 10.2447L26.2906 11.1189L25.4169 10.2447ZM25.4366 11.1024L26.3103 10.2283L25.4366 11.1024ZM26.5022 11.3299L27.3759 12.204L26.5022 11.3299ZM26.5219 12.1876L27.3962 11.3134L26.5219 12.1876ZM27.5874 12.415L28.4617 13.2891L27.5874 12.415ZM27.6072 13.2727L28.4814 12.3986L27.6072 13.2727ZM26.5022 13.5001L27.3759 14.3742L26.5022 13.5001ZM26.5219 14.3578L27.3962 13.4837L26.5219 14.3578ZM25.4169 14.6822L26.2906 15.5564L25.4169 14.6822ZM25.4366 15.5394L26.3103 14.6658L25.4366 15.5394ZM24.3722 15.7674L25.2464 16.6415L24.3722 15.7674ZM24.3919 16.6245L25.2656 15.7504L24.3919 16.6245ZM14.5313 16.824L15.405 17.6981L14.5313 16.824ZM14.5505 17.6817L15.4248 16.8076L14.5505 17.6817ZM16.7073 16.824L17.5816 17.6981L16.7073 16.824ZM16.7276 17.6817L17.6013 16.8076L16.7276 17.6817ZM8.02519 16.824L8.89943 17.6981L8.02519 16.824ZM8.04492 17.6817L8.91917 16.8076L8.04492 17.6817ZM5.81464 16.824L6.68888 17.6981L5.81464 16.824ZM5.83437 17.6817L6.70861 16.8076L5.83437 17.6817ZM23.3176 16.824L24.1919 17.6981L23.3176 16.824ZM23.3374 17.6817L24.2116 16.8076L23.3374 17.6817ZM25.4169 16.824L26.2906 17.6981L25.4169 16.824ZM25.4366 17.6817L26.3103 16.8076L25.4366 17.6817ZM13.4395 17.891L14.3137 18.7652L13.4395 17.891ZM13.4592 18.7487L14.3335 17.8746L13.4592 18.7487ZM17.7926 17.891L18.6669 18.7652L17.7926 17.891ZM17.8129 18.7487L18.6866 17.8746L17.8129 18.7487ZM9.0984 17.891L9.9721 18.7652L9.0984 17.891ZM9.11813 18.7487L9.99238 17.8746L9.11813 18.7487ZM4.72937 17.891L5.60361 18.7652L4.72937 17.891ZM4.7491 18.7487L5.62334 17.8746L4.7491 18.7487ZM22.0761 17.891L22.9504 18.7652L22.0761 17.891ZM22.0959 18.7487L22.9701 17.8746L22.0959 18.7487ZM26.5022 17.891L27.3759 18.7652L26.5022 17.891ZM26.5219 18.7487L27.3962 17.8746L26.5219 18.7487ZM12.3542 18.9405L13.2285 19.8152L12.3542 18.9405ZM12.3739 19.7982L13.2482 18.9246L12.3739 19.7982ZM10.1837 18.9405L11.0579 19.8152L10.1837 18.9405ZM10.2034 19.7982L11.0776 18.9246L10.2034 19.7982ZM18.8428 18.9405L19.717 19.8152L18.8428 18.9405ZM18.8625 19.7982L19.7368 18.9246L18.8625 19.7982ZM21.0139 18.9405L21.8876 19.8152L21.0139 18.9405ZM21.0336 19.7982L21.9073 18.9246L21.0336 19.7982ZM27.5874 18.9405L28.4617 19.8152L27.5874 18.9405ZM27.6072 19.7982L28.4814 18.9246L27.6072 19.7982ZM3.60354 18.9405L4.47778 19.8152L3.60354 18.9405ZM3.62382 19.7982L4.49751 18.9246L3.62382 19.7982ZM11.2689 20.0076L12.1432 20.8817L11.2689 20.0076ZM11.2887 20.8653L12.1629 19.9911L11.2887 20.8653ZM4.72937 20.0076L5.60361 20.8817L4.72937 20.0076ZM4.7491 20.8653L5.62334 19.9911L4.7491 20.8653ZM6.88127 20.0076L7.75552 20.8817L6.88127 20.0076ZM6.90155 20.8653L7.77525 19.9911L6.90155 20.8653ZM5.81464 21.0576L6.68888 21.9317L5.81464 21.0576ZM5.83437 21.9153L6.70861 21.0412L5.83437 21.9153ZM19.9286 20.0076L20.8023 20.8817L19.9286 20.0076ZM19.9478 20.8653L20.8221 19.9911L19.9478 20.8653ZM15.6336 20.0076L16.5078 20.8817L15.6336 20.0076ZM15.6533 20.8653L16.5276 19.9911L15.6533 20.8653ZM24.3722 20.0076L25.2459 20.8817L24.3722 20.0076ZM24.3919 20.8653L25.2656 19.9911L24.3919 20.8653ZM26.5022 20.0076L27.3759 20.8817L26.5022 20.0076ZM26.5219 20.8653L27.3962 19.9911L26.5219 20.8653ZM12.3542 21.0576L13.2285 21.9317L12.3542 21.0576ZM12.3739 21.9153L13.2482 21.0412L12.3739 21.9153ZM18.8428 21.0576L19.717 21.9317L18.8428 21.0576ZM18.8625 21.9153L19.7368 21.0412L18.8625 21.9153ZM25.4169 21.0576L26.2906 21.9317L25.4169 21.0576ZM25.4366 21.9153L26.3103 21.0412L25.4366 21.9153ZM13.4395 22.1427L14.3137 23.0169L13.4395 22.1427ZM13.4592 23.0004L14.3335 22.1263L13.4592 23.0004ZM17.7926 22.1427L18.6669 23.0169L17.7926 22.1427ZM17.8129 23.0004L18.6866 22.1263L17.8129 23.0004ZM14.5313 23.1659L15.405 24.0401L14.5313 23.1659ZM14.5505 24.0231L15.4248 23.1495L14.5505 24.0231ZM16.7073 23.1659L17.5816 24.0401L16.7073 23.1659ZM16.7276 24.0231L17.6013 23.1495L16.7276 24.0231ZM15.6336 24.2302L16.5078 25.1044L15.6336 24.2302ZM15.6533 25.0874L16.5276 24.2138L15.6533 25.0874ZM11.2689 24.2302L12.1432 25.1044L11.2689 24.2302ZM11.2887 25.0874L12.1629 24.2138L11.2887 25.0874ZM19.9281 24.2302L20.8023 25.1044L19.9281 24.2302ZM19.9484 25.0874L20.8221 24.2138L19.9484 25.0874ZM10.1837 25.2803L11.0579 26.1544L10.1837 25.2803ZM10.2034 26.1374L11.0776 25.2638L10.2034 26.1374ZM21.0139 25.2803L21.8876 26.1544L21.0139 25.2803ZM21.0336 26.138L21.9073 25.2638L21.0336 26.138ZM11.2689 26.3654L12.1432 27.2395L11.2689 26.3654ZM11.2887 27.2231L12.1629 26.349L11.2887 27.2231ZM19.9286 26.3654L20.8023 27.2395L19.9286 26.3654ZM19.9478 27.2231L20.8221 26.349L19.9478 27.2231ZM14.5313 25.2803L15.405 26.1544L14.5313 25.2803ZM14.5505 26.138L15.4248 25.2638L14.5505 26.138ZM16.7073 25.2803L17.5816 26.1544L16.7073 25.2803ZM16.7276 26.138L17.6013 25.2638L16.7276 26.138ZM13.4395 26.3654L14.3137 27.2395L13.4395 26.3654ZM13.4592 27.2231L14.3335 26.349L13.4592 27.2231ZM17.7926 26.3654L18.6669 27.2395L17.7926 26.3654ZM17.8129 27.2231L18.6866 26.349L17.8129 27.2231ZM12.3542 27.4505L13.2285 28.3247L12.3542 27.4505ZM12.3739 28.3082L13.2482 27.4341L12.3739 28.3082ZM18.8428 27.4505L19.717 28.3247L18.8428 27.4505Z" stroke="#D40D07" stroke-width="0.324752" stroke-linecap="round"/>
</svg>
